<svg xmlns="http://www.w3.org/2000/svg" width="1024" height="1024" viewBox="0 0 1024 1024">
<defs>
<linearGradient id="mihiraGoldGradient" x1="176" y1="120" x2="848" y2="904" gradientUnits="userSpaceOnUse">
<stop offset="0" stop-color="#FFE89A"/>
<stop offset="0.32" stop-color="#F8C85A"/>
<stop offset="0.66" stop-color="#D99A2B"/>
<stop offset="1" stop-color="#FFF0B8"/>
</linearGradient>
</defs>
<g>
<path d="M 512.92 921.81 C510.62,916.24 500.60,903.74 491.95,895.61 C486.77,890.76 476.23,882.89 464.52,875.16 C423.11,847.82 410.77,835.65 398.90,810.49 C395.78,803.88 393.43,800.03 392.69,800.36 C372.73,809.14 366.74,810.49 348.00,810.46 C330.52,810.43 325.93,809.65 297.63,801.91 C275.36,795.81 262.11,794.28 246.32,795.96 C240.37,796.60 233.57,797.60 231.21,798.19 C228.85,798.78 226.71,799.04 226.44,798.77 C226.17,798.51 226.66,795.41 227.51,791.89 C231.45,775.72 230.45,757.27 224.06,728.00 C215.59,689.23 216.18,665.46 226.20,641.55 C227.83,637.67 229.38,633.79 229.65,632.93 C230.01,631.77 228.37,630.61 223.32,628.46 C207.24,621.64 188.60,605.98 176.74,589.33 C173.57,584.88 166.51,573.52 161.05,564.08 C155.59,554.64 148.97,543.90 146.34,540.21 C140.71,532.30 129.82,521.17 121.75,515.09 C118.59,512.71 116.00,510.40 116.00,509.96 C116.00,509.52 119.71,506.26 124.25,502.71 C139.78,490.55 146.76,481.83 162.01,455.50 C167.11,446.70 173.46,436.33 176.12,432.45 C186.96,416.69 206.40,400.55 221.84,394.49 C225.89,392.91 229.00,391.09 229.00,390.31 C229.00,389.55 227.87,386.71 226.50,384.00 C216.02,363.33 214.52,335.44 222.13,303.00 C228.98,273.81 230.56,259.95 228.99,242.93 C228.39,236.40 227.31,228.79 226.60,226.03 C225.04,220.02 224.81,220.09 235.74,223.24 C242.29,225.12 245.83,225.46 258.50,225.41 C274.33,225.34 279.62,224.46 308.84,217.03 C325.78,212.72 332.89,211.76 348.00,211.76 C363.22,211.76 373.89,213.78 386.13,218.99 C390.02,220.64 393.55,222.00 393.96,222.00 C394.38,222.00 396.36,218.04 398.37,213.19 C406.67,193.17 421.39,176.42 443.50,161.86 C450.65,157.15 457.62,152.71 459.00,151.99 C460.38,151.28 467.25,146.92 474.27,142.30 C488.91,132.69 502.41,120.05 508.78,110.00 C515.27,99.75 514.58,99.83 520.22,108.67 C530.38,124.56 538.42,131.05 585.15,161.00 C606.93,174.96 620.46,189.69 629.16,208.88 C634.47,220.62 635.54,222.53 636.59,222.29 C637.09,222.17 640.88,220.68 645.00,218.97 C657.69,213.72 665.37,212.49 685.00,212.60 C703.51,212.69 704.18,212.79 729.00,219.29 C757.31,226.69 777.03,227.81 795.41,223.04 C799.76,221.91 803.54,221.21 803.82,221.49 C804.10,221.76 803.80,224.35 803.16,227.24 C802.52,230.13 801.51,237.23 800.92,243.00 C799.37,258.09 800.62,270.80 806.07,295.50 C814.27,332.72 814.05,358.29 805.32,379.00 C800.07,391.47 800.06,391.46 809.21,395.45 C820.31,400.30 830.27,407.26 840.03,417.00 C849.29,426.23 855.67,435.36 868.17,457.30 C872.62,465.11 878.32,474.40 880.83,477.95 C886.99,486.66 897.76,497.86 906.12,504.23 C909.90,507.12 913.00,509.72 913.00,510.02 C913.00,510.32 911.76,511.31 910.25,512.21 C905.01,515.33 892.05,528.13 886.00,536.16 C882.66,540.59 874.79,552.88 868.51,563.46 C851.23,592.58 842.18,603.94 827.02,615.52 C821.48,619.75 805.71,628.64 801.03,630.17 C799.38,630.70 799.24,630.13 805.40,647.21 C809.07,657.36 812.01,673.60 811.99,683.63 C811.98,695.29 810.33,706.02 804.10,734.99 C799.60,755.91 798.88,780.13 802.37,792.75 C803.17,795.64 803.52,798.00 803.16,798.00 C802.80,798.00 798.97,797.32 794.66,796.50 C784.52,794.56 763.52,794.56 753.36,796.50 C749.04,797.33 738.09,800.03 729.04,802.51 C707.40,808.43 696.84,810.24 683.50,810.32 C670.09,810.41 657.67,808.13 645.88,803.43 C641.13,801.55 636.86,800.01 636.38,800.01 C635.89,800.02 634.01,803.57 632.19,807.90 C624.83,825.43 612.12,841.58 595.55,854.46 C591.12,857.91 579.19,866.22 569.03,872.95 C558.88,879.67 547.75,887.41 544.31,890.15 C535.44,897.21 524.05,909.78 519.54,917.49 C517.43,921.11 515.37,924.27 514.96,924.52 C514.56,924.77 513.64,923.55 512.92,921.81 ZM 529.39 886.64 C536.13,880.09 543.84,874.25 559.00,864.25 C570.28,856.81 583.10,847.91 587.50,844.48 C605.75,830.25 616.89,814.87 625.53,792.00 C627.09,787.88 628.67,784.13 629.06,783.67 C629.44,783.22 632.84,784.40 636.63,786.30 C664.35,800.23 687.78,801.32 727.00,790.53 C748.76,784.54 758.88,782.83 772.00,782.90 C778.88,782.94 785.39,783.09 786.48,783.24 C788.37,783.49 788.46,782.81 788.62,767.00 C788.78,751.03 789.72,743.71 793.46,729.09 C803.76,688.87 802.46,662.99 788.74,635.00 C785.91,629.22 783.46,624.26 783.29,623.97 C783.12,623.68 786.10,622.65 789.90,621.66 C804.28,617.96 819.15,608.73 832.25,595.38 C841.66,585.79 845.59,580.26 858.53,558.46 C872.21,535.42 876.89,529.01 887.97,518.13 L 896.50 509.76 L 890.33 504.13 C877.70,492.59 869.98,482.28 856.54,459.00 C846.68,441.91 841.29,434.25 833.06,425.64 C821.51,413.56 805.87,404.24 790.75,400.45 C787.04,399.52 784.00,398.46 784.00,398.10 C784.00,397.74 784.60,396.56 785.34,395.47 C793.47,383.54 799.26,367.01 800.95,350.90 C802.25,338.44 800.84,325.90 794.86,296.98 C789.69,271.98 789.59,271.17 789.54,253.88 L 789.50 236.26 L 774.47 236.77 C756.93,237.36 747.52,236.08 725.00,230.04 C702.17,223.93 694.68,222.64 682.00,222.65 C667.64,222.67 655.75,225.35 640.99,231.90 L 630.49 236.56 L 625.74 224.44 C615.64,198.72 604.70,186.68 571.79,165.10 C538.72,143.42 533.67,139.57 524.14,128.75 C519.41,123.39 515.08,119.00 514.51,119.00 C513.95,119.00 512.85,120.01 512.08,121.25 C509.26,125.77 499.33,136.24 492.91,141.46 C489.29,144.41 477.82,152.32 467.42,159.05 C443.60,174.46 435.38,180.54 427.32,188.72 C416.23,199.97 407.30,215.20 402.34,231.30 C401.38,234.43 400.22,237.00 399.77,237.00 C399.32,237.00 395.03,235.17 390.23,232.93 C364.78,221.05 344.79,220.06 311.00,229.02 C281.77,236.77 263.04,238.95 245.69,236.62 L 239.88 235.84 L 240.67 239.67 C241.84,245.34 241.48,266.40 240.06,275.00 C239.37,279.12 237.01,291.50 234.80,302.50 C226.64,343.04 228.89,367.14 243.06,391.17 C245.23,394.85 247.00,398.08 247.00,398.36 C247.00,398.65 243.08,400.08 238.28,401.54 C212.09,409.53 195.81,423.68 178.34,453.65 C163.83,478.55 155.29,490.74 145.34,500.79 L 135.93 510.29 L 143.76 518.40 C155.27,530.31 157.53,533.44 171.28,556.50 C178.16,568.05 185.84,580.28 188.34,583.67 C194.20,591.64 206.78,603.99 213.69,608.58 C220.94,613.39 234.30,619.58 241.48,621.45 C244.68,622.29 247.47,623.13 247.67,623.33 C247.87,623.53 245.54,628.88 242.49,635.21 C229.78,661.65 227.83,686.12 235.64,721.50 C242.09,750.73 243.49,761.20 242.62,773.60 L 241.98 782.70 L 257.74 782.70 C274.38,782.69 283.84,784.22 305.00,790.35 C324.26,795.93 332.77,797.31 348.00,797.32 C365.45,797.33 372.54,795.69 390.24,787.59 L 401.98 782.21 L 404.08 789.35 C405.24,793.28 407.90,800.19 410.00,804.69 C420.34,826.91 431.58,837.86 470.00,863.23 C489.02,875.78 498.99,883.93 508.90,895.03 L 515.30 902.19 L 517.79 898.85 C519.16,897.01 524.38,891.51 529.39,886.64 ZM 509.17 863.07 C502.63,853.29 491.66,842.69 478.18,833.13 C472.53,829.12 464.96,823.09 461.37,819.73 C454.69,813.48 448.35,805.32 449.38,804.29 C450.22,803.45 461.85,807.88 466.50,810.81 C481.93,820.55 509.67,844.09 513.25,850.48 C514.00,851.82 515.75,850.48 523.33,842.71 C531.41,834.43 546.18,822.84 562.17,812.22 C567.63,808.60 579.76,803.42 580.66,804.33 C581.63,805.30 574.36,814.43 567.54,820.81 C564.00,824.13 556.50,830.10 550.87,834.09 C537.27,843.74 527.23,853.44 520.88,863.08 C518.02,867.44 515.40,871.00 515.07,871.00 C514.74,871.00 512.09,867.43 509.17,863.07 ZM 532.00 795.27 C532.00,794.69 533.59,793.92 535.54,793.56 C550.20,790.81 577.38,780.84 596.94,771.03 C638.61,750.14 665.74,724.02 683.50,687.69 C689.45,675.53 692.26,667.92 697.62,649.50 C704.83,624.71 709.37,609.89 716.00,589.50 C719.83,577.76 723.97,562.59 725.41,555.10 C726.82,547.72 728.17,541.49 728.41,541.25 C729.06,540.60 730.86,547.50 732.13,555.50 C733.83,566.21 732.74,576.86 728.67,589.15 C723.01,606.26 717.51,624.15 711.64,644.53 C708.62,655.00 704.82,667.40 703.20,672.08 C692.45,703.11 677.09,727.59 652.60,752.75 C647.11,758.39 642.99,763.00 643.44,763.00 C645.73,763.00 667.39,746.42 676.82,737.45 C708.61,707.20 732.01,670.48 740.50,637.50 C745.37,618.58 746.43,609.67 746.40,588.00 C746.36,564.79 745.19,556.64 737.51,526.00 C735.10,516.38 731.26,497.48 728.99,484.00 C724.67,458.39 722.24,448.50 717.17,436.02 C715.50,431.90 714.35,428.32 714.61,428.06 C715.62,427.04 728.19,443.47 731.71,450.43 C733.09,453.14 734.82,457.41 735.56,459.93 C736.98,464.74 740.45,484.02 741.43,492.50 C742.11,498.37 744.25,508.57 747.74,522.50 C757.35,560.94 759.97,582.42 758.06,607.00 C757.08,619.46 754.92,634.54 753.42,639.26 C752.98,640.63 753.19,641.10 754.10,640.80 C757.81,639.56 770.66,601.72 774.58,580.50 C779.91,551.59 777.86,517.48 769.29,492.50 C759.61,464.29 746.24,443.85 716.96,412.50 C710.79,405.90 697.98,390.83 688.49,379.00 C679.00,367.17 666.73,353.10 661.22,347.72 C655.64,342.26 652.16,338.21 653.36,338.57 C654.54,338.92 659.59,340.98 664.60,343.14 C676.77,348.42 681.87,353.16 700.86,376.91 C709.46,387.66 721.63,401.87 727.91,408.48 C747.50,429.13 759.83,446.12 769.81,466.22 C774.57,475.81 776.50,480.67 782.65,498.46 C789.00,516.85 791.51,546.02 788.55,567.11 C784.45,596.35 777.12,617.39 759.15,651.50 C736.16,695.13 700.49,732.01 655.00,759.19 C624.08,777.66 596.50,788.45 567.50,793.43 C555.71,795.45 532.00,796.68 532.00,795.27 ZM 468.00 793.02 C409.81,787.20 342.87,748.17 299.85,694.96 C278.50,668.57 257.71,629.81 247.11,596.67 C239.65,573.36 234.85,543.15 235.09,521.00 L 235.15 514.50 L 238.47 527.00 C245.24,552.55 255.06,579.34 264.57,598.16 C283.47,635.62 303.01,656.20 338.88,676.46 C352.11,683.93 368.32,690.43 400.28,701.08 C405.11,702.69 419.19,708.05 431.58,712.99 C453.16,721.59 471.92,727.46 486.30,730.11 C489.99,730.79 493.00,731.66 493.00,732.03 C493.00,733.31 481.61,735.12 470.00,735.70 C455.56,736.41 448.67,734.78 427.07,725.53 C418.66,721.93 400.01,714.88 385.64,709.86 C356.46,699.68 343.98,694.45 330.00,686.52 C310.60,675.53 290.04,659.37 277.42,645.23 C273.14,640.43 268.77,635.60 267.71,634.50 C265.78,632.51 265.78,632.51 267.05,635.00 C281.97,664.14 318.47,699.69 355.72,721.37 C372.92,731.38 397.09,740.60 418.04,745.14 C427.16,747.12 431.37,747.41 451.00,747.42 C475.66,747.43 478.22,747.03 514.50,737.54 C521.65,735.67 536.95,732.04 548.50,729.47 C570.95,724.48 585.99,719.89 597.91,714.40 C601.98,712.52 605.48,711.15 605.68,711.35 C606.24,711.90 593.26,723.92 586.48,729.12 C577.52,736.00 573.94,737.44 557.00,740.98 C548.47,742.76 531.92,746.64 520.21,749.61 C472.54,761.71 454.52,763.88 429.50,760.53 C416.53,758.79 399.78,754.91 388.59,751.04 C385.33,749.91 382.53,749.14 382.36,749.31 C381.73,749.94 405.72,761.87 415.00,765.55 C426.27,770.01 440.64,774.24 454.47,777.18 C462.54,778.90 468.11,779.33 483.00,779.38 C499.53,779.44 502.92,779.15 514.83,776.67 C534.20,772.63 549.89,766.78 565.27,757.88 C581.52,748.47 589.34,741.85 617.02,714.10 C632.15,698.92 652.02,679.30 661.17,670.50 C670.32,661.70 680.21,651.23 683.14,647.23 C686.08,643.23 688.61,640.34 688.77,640.82 C689.23,642.20 680.29,665.82 677.53,670.53 C676.16,672.87 668.23,681.24 659.91,689.14 C651.58,697.04 637.36,711.38 628.29,721.00 C601.28,749.70 586.72,761.63 565.00,772.90 C546.79,782.34 534.56,786.61 513.30,790.94 C501.61,793.32 480.67,794.28 468.00,793.02 ZM 327.00 764.39 C325.62,764.14 318.42,762.77 311.00,761.35 C296.71,758.62 281.11,757.84 270.64,759.34 L 264.78 760.17 L 265.64 753.84 C267.13,742.85 266.50,724.39 264.18,711.00 C261.57,696.00 261.33,680.63 263.57,673.08 C265.29,667.28 265.74,667.25 267.69,672.77 C273.03,687.86 278.47,719.67 278.46,735.79 L 278.45 748.08 L 284.98 747.43 C293.95,746.55 307.33,748.33 328.00,753.16 C347.41,757.70 357.11,761.29 355.17,763.23 C353.98,764.42 332.12,765.32 327.00,764.39 ZM 680.11 763.92 C677.70,763.45 675.52,762.85 675.27,762.60 C673.95,761.28 684.94,757.52 700.25,754.05 C725.48,748.33 729.34,747.75 741.77,747.82 L 753.03 747.88 L 752.43 738.69 C751.91,730.76 752.39,726.21 755.92,705.50 C759.80,682.77 763.27,669.43 765.03,670.52 C765.46,670.79 766.37,674.26 767.04,678.25 C768.48,686.77 767.91,696.77 765.04,713.38 C761.94,731.35 761.56,738.08 763.01,749.09 C763.73,754.54 764.14,759.18 763.91,759.38 C763.69,759.59 759.90,759.10 755.50,758.31 C745.86,756.56 737.61,757.07 720.81,760.43 C698.33,764.92 689.19,765.70 680.11,763.92 ZM 514.79 726.47 C513.95,725.10 511.37,706.31 509.51,688.00 C506.45,657.76 503.59,633.45 499.44,602.23 C499.05,599.33 498.23,596.63 497.62,596.24 C495.99,595.19 489.71,593.03 488.24,593.02 C486.50,592.99 472.69,611.73 432.98,668.00 C413.57,695.50 410.00,699.84 410.00,695.92 C410.00,694.78 415.82,680.63 431.75,643.00 C446.67,607.77 459.00,577.68 459.00,576.49 C459.00,574.88 451.65,568.00 449.93,568.00 C447.85,568.00 437.17,572.62 402.50,588.52 C333.65,620.09 334.00,619.93 334.00,618.15 C334.00,616.70 342.88,609.52 372.06,587.38 C398.76,567.11 431.42,541.82 433.85,539.51 C434.96,538.45 434.98,537.26 433.93,532.57 C433.23,529.46 432.25,526.65 431.74,526.34 C430.35,525.48 402.02,521.94 349.44,516.04 C304.84,511.04 299.88,510.00 311.59,508.13 C322.89,506.32 369.03,500.68 382.50,499.46 C391.35,498.66 426.59,494.21 430.23,493.43 C432.49,492.95 433.23,491.96 434.48,487.74 C435.32,484.93 436.00,482.31 436.00,481.90 C436.00,480.96 403.04,455.25 374.61,434.02 C348.91,414.81 335.26,403.75 336.70,403.27 C338.19,402.77 344.72,405.51 369.50,417.02 C381.60,422.63 398.02,430.26 406.00,433.96 C413.98,437.66 427.59,443.72 436.26,447.43 L 452.02 454.18 L 455.44 451.34 C457.32,449.78 459.15,447.72 459.49,446.77 C460.14,445.00 448.95,417.06 424.74,360.00 C411.27,328.24 410.41,326.00 411.73,326.00 C412.94,326.00 416.29,330.57 446.54,373.50 C461.26,394.40 476.42,415.70 480.21,420.83 L 487.11 430.16 L 491.31 429.46 C497.29,428.47 498.69,427.48 499.37,423.78 C500.03,420.16 504.15,386.71 506.43,366.45 C509.45,339.69 512.17,317.24 513.34,309.50 L 514.54 301.50 L 515.74 307.00 C516.40,310.02 517.19,315.20 517.51,318.50 C517.82,321.80 518.29,326.08 518.55,328.00 C518.80,329.92 519.20,333.52 519.44,336.00 C520.54,347.67 524.57,381.84 527.38,403.50 L 530.50 427.50 L 536.36 428.98 L 542.21 430.46 L 544.42 427.89 C546.59,425.37 571.83,390.35 591.56,362.50 C604.36,344.42 615.64,329.34 616.97,328.52 C618.24,327.73 616.44,332.35 607.04,354.00 C600.45,369.19 591.85,389.64 580.32,417.50 C577.82,423.55 575.19,429.85 574.47,431.50 C573.76,433.15 572.24,437.19 571.10,440.47 L 569.03 446.45 L 572.72 450.22 C574.75,452.30 576.97,454.00 577.66,454.00 C579.96,454.00 624.16,434.99 652.50,421.81 C667.90,414.65 682.75,407.93 685.50,406.89 L 690.50 404.99 L 685.50 409.58 C679.18,415.39 676.07,417.84 649.35,437.92 C614.03,464.45 592.99,481.05 593.08,482.32 C593.12,482.97 593.91,485.75 594.83,488.50 L 596.50 493.50 L 615.50 496.16 C625.95,497.63 648.90,500.46 666.50,502.46 C704.53,506.79 721.62,509.39 718.00,510.32 C715.67,510.92 705.50,512.29 695.00,513.44 C677.94,515.29 619.43,522.33 610.00,523.67 C603.67,524.56 598.00,525.79 597.38,526.40 C595.77,527.98 593.81,536.85 594.72,538.39 C596.16,540.80 616.35,556.84 646.50,579.51 C685.46,608.81 698.42,619.53 692.20,617.29 C691.26,616.95 676.33,610.16 659.00,602.19 C624.66,586.40 603.88,577.12 588.70,570.78 L 578.90 566.68 L 574.41 571.09 C570.85,574.58 570.03,575.99 570.50,577.84 C571.28,580.98 585.85,615.70 602.02,653.00 C622.33,699.83 622.35,699.87 617.10,694.48 C615.51,692.84 602.39,675.08 587.96,655.00 C553.01,606.39 543.03,593.00 541.78,593.00 C540.24,593.00 532.61,595.24 531.84,595.92 C530.41,597.19 525.01,639.78 522.00,673.50 C520.38,691.57 516.99,721.11 516.14,724.47 C515.73,726.10 515.12,727.00 514.79,726.47 ZM 516.72 612.83 C518.93,596.62 519.02,597.55 515.24,597.19 C513.13,596.98 511.80,597.37 511.44,598.29 C511.14,599.07 511.60,604.04 512.45,609.34 C513.30,614.64 514.00,620.41 514.00,622.16 C514.00,628.17 515.18,624.14 516.72,612.83 ZM 570.40 608.25 C569.51,606.19 567.02,600.24 564.86,595.03 C562.71,589.82 560.54,585.14 560.03,584.63 C558.88,583.48 553.72,586.66 554.23,588.20 C554.88,590.13 570.48,611.89 571.26,611.94 C571.68,611.97 571.30,610.31 570.40,608.25 ZM 468.05 598.66 C473.94,590.75 475.17,588.50 474.34,587.16 C473.76,586.25 472.42,585.37 471.35,585.21 C469.73,584.96 468.56,586.90 464.45,596.59 C461.73,603.01 459.33,608.76 459.12,609.38 C458.50,611.23 460.25,609.13 468.05,598.66 ZM 537.83 580.67 C548.52,576.99 555.44,572.52 564.48,563.48 C576.80,551.16 582.44,540.00 585.62,521.66 C588.79,503.34 583.73,482.30 572.46,466.95 C564.07,455.52 549.65,445.10 536.50,440.96 C526.58,437.83 509.43,437.14 499.72,439.48 C474.11,445.64 454.99,463.90 446.84,490.00 C444.82,496.47 444.51,499.49 444.56,512.00 C444.61,524.80 444.92,527.40 447.18,534.17 C454.27,555.42 469.13,571.36 489.34,579.41 C499.36,583.40 503.11,583.95 517.50,583.55 C528.17,583.26 531.82,582.74 537.83,580.67 ZM 431.91 562.31 C442.86,557.69 443.81,556.88 442.02,553.53 C441.27,552.14 440.24,551.00 439.72,551.00 C438.81,551.00 418.00,566.92 418.00,567.61 C418.00,568.04 421.17,566.83 431.91,562.31 ZM 613.00 567.64 C613.00,567.45 607.77,563.32 601.38,558.47 L 589.76 549.66 L 587.90 552.08 C585.49,555.23 585.53,555.65 588.47,557.57 C593.88,561.11 613.00,568.97 613.00,567.64 ZM 616.92 512.17 C623.20,511.25 628.49,510.02 628.69,509.44 C629.09,508.24 599.73,504.43 598.05,505.47 C596.90,506.18 596.60,512.27 597.67,513.33 C598.69,514.36 604.40,514.01 616.92,512.17 ZM 432.00 509.97 C432.00,508.30 431.40,506.71 430.66,506.42 C429.29,505.90 402.98,508.68 402.23,509.43 C402.00,509.66 404.00,510.15 406.66,510.51 C409.32,510.87 413.52,511.53 416.00,511.97 C418.48,512.41 423.09,512.83 426.25,512.89 L 432.00 513.00 L 432.00 509.97 ZM 444.00 465.06 C444.00,463.95 440.01,461.62 431.36,457.69 C424.41,454.53 418.53,452.14 418.29,452.37 C418.06,452.61 422.91,456.68 429.08,461.43 C439.73,469.62 440.38,469.97 442.14,468.37 C443.16,467.45 444.00,465.96 444.00,465.06 ZM 600.12 462.39 C605.83,458.20 611.06,454.55 611.75,454.28 C612.44,454.01 613.00,453.11 613.00,452.29 C613.00,451.46 612.44,451.03 611.75,451.33 C591.80,460.00 585.45,463.15 585.16,464.53 C584.83,466.10 587.59,470.00 589.03,470.00 C589.42,470.00 594.41,466.57 600.12,462.39 ZM 473.78 437.44 C475.00,436.59 475.98,435.35 475.95,434.69 C475.88,433.04 459.78,410.75 458.30,410.26 C457.30,409.93 460.30,417.44 468.51,435.75 C470.17,439.44 470.68,439.61 473.78,437.44 ZM 566.22 425.09 C569.46,417.68 571.70,411.30 571.23,410.83 C570.54,410.14 554.52,430.96 553.12,434.36 C552.60,435.62 557.15,439.05 558.93,438.74 C559.71,438.61 562.99,432.47 566.22,425.09 ZM 519.01 423.75 C519.02,422.51 518.26,415.54 517.33,408.25 C516.12,398.83 515.25,395.00 514.31,395.00 C513.42,395.00 512.98,396.52 512.95,399.75 C512.92,402.36 512.30,409.00 511.56,414.50 C510.83,420.00 510.42,424.84 510.67,425.25 C510.92,425.66 512.89,426.00 515.06,426.00 C518.48,426.00 519.00,425.70 519.01,423.75 ZM 373.39 681.14 C354.19,673.15 349.35,669.39 333.45,650.13 C326.88,642.18 315.88,629.38 309.00,621.70 C289.97,600.44 287.31,597.30 279.11,586.50 C265.82,568.99 253.51,544.99 246.59,523.10 C238.95,498.90 237.37,470.31 242.37,446.50 C248.80,415.89 260.30,387.02 277.67,357.93 C300.93,318.97 332.05,287.61 369.29,265.59 C377.80,260.56 380.79,259.45 374.48,263.66 C363.77,270.81 345.32,288.27 333.70,302.26 C320.02,318.72 304.79,344.95 296.60,366.17 C287.60,389.48 284.00,408.57 284.00,432.95 C284.00,450.84 285.91,465.32 290.66,483.50 C294.84,499.49 300.32,524.77 301.93,535.50 C304.37,551.74 309.10,573.36 312.58,584.11 C314.55,590.20 315.95,595.39 315.69,595.65 C314.96,596.37 304.43,583.20 299.95,575.96 C294.91,567.82 293.74,563.74 290.01,541.50 C286.76,522.07 284.43,510.97 279.84,493.00 C278.22,486.67 275.57,473.63 273.95,464.02 C269.54,437.91 270.10,411.51 275.59,386.50 C276.77,381.15 274.44,385.05 270.23,395.50 C261.61,416.87 256.20,439.27 253.91,463.00 C252.88,473.63 252.95,477.72 254.33,490.27 C256.14,506.63 260.42,525.23 265.05,536.77 C269.30,547.39 280.01,566.77 286.42,575.44 C292.73,583.97 300.80,593.54 313.47,607.50 C325.99,621.30 333.61,630.11 347.67,647.00 C358.32,659.81 374.79,677.03 382.00,682.90 C385.59,685.82 383.70,685.44 373.39,681.14 ZM 222.47 574.07 C216.08,569.23 208.62,559.98 197.80,543.50 C189.54,530.93 179.63,519.51 171.64,513.37 L 167.78 510.40 L 174.99 504.51 C182.82,498.10 190.82,488.33 201.59,472.04 C209.05,460.74 219.13,449.32 224.66,445.90 C226.55,444.73 228.26,443.94 228.45,444.14 C228.64,444.34 228.01,447.01 227.06,450.09 C224.20,459.28 199.38,496.44 190.08,505.45 C187.83,507.63 186.00,509.80 186.00,510.28 C186.00,510.75 188.09,513.35 190.64,516.04 C200.75,526.72 218.81,553.81 225.56,568.42 C230.65,579.44 230.33,580.03 222.47,574.07 ZM 802.00 576.06 C802.00,573.38 807.63,563.01 816.95,548.52 C828.25,530.97 833.27,524.20 840.93,516.20 C843.72,513.28 846.00,510.65 846.00,510.34 C846.00,510.04 842.78,506.35 838.86,502.14 C827.52,490.02 803.00,451.92 803.00,446.44 C803.00,445.16 804.13,445.65 807.75,448.51 C814.89,454.15 818.28,458.21 828.20,473.00 C840.77,491.75 849.23,501.43 859.11,508.37 L 861.50 510.05 L 858.00 512.68 C850.33,518.44 840.50,530.00 829.81,545.85 C823.63,555.01 815.85,565.24 812.53,568.59 C806.36,574.81 802.00,577.91 802.00,576.06 ZM 793.08 495.75 C791.30,486.28 788.47,477.42 780.34,455.73 C771.20,431.38 766.22,420.58 757.79,406.84 C745.00,385.99 728.97,368.38 710.00,354.37 C696.73,344.56 678.58,334.53 665.11,329.56 C663.12,328.83 656.78,326.45 651.00,324.27 C645.22,322.09 634.65,318.15 627.50,315.53 C620.35,312.90 606.17,307.49 596.00,303.50 C577.63,296.30 561.46,291.26 549.00,288.86 C542.63,287.64 542.57,287.60 546.00,286.82 C555.58,284.67 562.67,284.17 570.72,285.08 C580.60,286.20 586.72,288.13 604.50,295.73 C611.65,298.79 628.69,305.26 642.36,310.12 C680.56,323.68 698.00,332.17 718.20,347.04 C730.63,356.20 750.51,375.14 759.02,385.95 C765.10,393.67 767.00,395.32 767.00,392.87 C767.00,390.12 752.54,367.31 744.26,357.00 C732.40,342.22 703.19,314.89 688.00,304.37 C664.50,288.08 635.06,276.21 607.50,271.90 C588.84,268.99 555.48,270.89 536.50,275.95 C511.97,282.49 500.56,285.28 485.50,288.41 C476.15,290.35 466.70,292.44 464.50,293.05 C455.01,295.67 444.65,299.13 436.63,302.36 L 428.03 305.83 L 430.60 302.46 C433.95,298.07 445.33,288.84 450.78,286.09 C455.17,283.87 469.97,279.75 478.00,278.50 C488.93,276.80 508.05,272.74 527.00,268.09 C559.72,260.06 582.04,258.18 605.61,261.49 C617.65,263.18 640.71,268.96 648.08,272.13 C651.30,273.51 653.38,273.89 654.46,273.28 C655.83,272.52 655.65,272.16 653.29,270.98 C651.75,270.20 649.37,268.82 648.00,267.89 C633.14,257.94 604.57,247.00 580.00,241.88 C567.74,239.32 535.54,238.18 524.26,239.91 C494.12,244.52 467.02,256.17 443.00,274.87 C430.33,284.73 357.83,357.75 348.87,369.67 C344.64,375.31 341.39,378.81 341.23,377.94 C340.84,375.95 347.39,357.91 350.82,351.51 C354.07,345.44 422.36,276.91 434.06,267.97 C470.29,240.31 504.58,228.55 547.50,229.08 C582.03,229.51 612.93,237.97 647.64,256.51 C683.07,275.42 716.24,305.72 741.23,342.00 C768.04,380.92 788.62,433.53 793.46,475.50 C794.35,483.21 795.28,502.00 794.77,502.00 C794.49,502.00 793.73,499.19 793.08,495.75 ZM 299.52 478.85 C298.63,475.91 297.43,469.59 296.85,464.82 C295.56,454.18 296.83,446.93 303.92,424.62 C309.32,407.61 311.08,401.53 317.46,378.00 C326.68,343.99 335.27,323.47 349.47,301.50 C358.28,287.87 375.49,267.82 384.50,260.70 C387.25,258.53 389.50,256.25 389.50,255.64 C389.50,253.76 415.15,241.52 428.17,237.19 C444.58,231.73 455.28,229.26 470.18,227.50 C484.99,225.74 488.00,225.74 482.00,227.49 C465.29,232.36 422.14,253.15 403.90,265.12 C394.23,271.47 388.75,276.04 379.00,285.90 C372.12,292.85 363.83,302.29 360.57,306.88 C347.75,324.92 337.06,350.46 328.50,383.50 C321.75,409.56 320.92,412.47 315.01,431.00 C307.53,454.44 305.45,462.19 303.43,474.00 C302.54,479.23 301.66,483.66 301.48,483.85 C301.29,484.04 300.41,481.79 299.52,478.85 ZM 264.11 348.75 C261.47,342.28 261.60,324.93 264.41,307.37 C267.25,289.65 267.63,277.12 265.62,266.75 C264.15,259.13 264.03,259.24 271.50,261.61 C278.76,263.92 294.15,263.71 307.25,261.14 C324.44,257.75 335.12,256.82 342.78,258.04 C346.48,258.63 349.89,259.50 350.37,259.97 C351.71,261.30 337.50,265.38 317.00,269.54 C302.56,272.47 296.14,273.30 287.75,273.32 L 277.00 273.35 L 277.00 285.60 C277.00,299.84 276.00,308.19 272.01,327.50 C267.99,346.91 266.75,352.00 266.05,352.00 C265.71,352.00 264.84,350.54 264.11,348.75 ZM 762.71 344.95 C758.36,330.88 753.82,301.96 753.46,286.00 L 753.18 273.50 L 739.84 272.87 C731.09,272.47 722.54,271.35 715.00,269.64 C701.29,266.53 685.44,262.48 682.08,261.23 C673.05,257.87 703.38,257.69 720.00,261.00 C735.20,264.03 746.99,264.57 755.31,262.61 C765.44,260.22 764.80,259.48 763.25,271.75 C761.65,284.39 762.09,292.18 765.61,313.11 C768.37,329.52 768.41,340.55 765.74,347.11 L 764.40 350.39 L 762.71 344.95 ZM 452.63 212.00 C455.41,207.23 464.17,199.53 477.56,190.08 C496.95,176.41 504.93,169.18 511.10,159.75 C512.81,157.14 514.38,155.00 514.59,155.00 C514.80,155.00 517.26,158.14 520.05,161.97 C525.73,169.78 535.93,178.61 556.50,193.50 C565.32,199.89 571.86,205.47 574.62,208.95 C576.99,211.95 578.74,214.59 578.52,214.82 C577.77,215.56 561.62,207.15 553.49,201.79 C539.45,192.52 533.72,187.92 524.26,178.35 C519.18,173.21 514.68,169.02 514.26,169.05 C513.84,169.07 511.49,171.60 509.03,174.67 C498.13,188.29 467.03,210.46 453.13,214.52 L 450.76 215.21 L 452.63 212.00 Z" fill="url(#mihiraGoldGradient)"/>
</g>
</svg>
