<svg version="1.1" id="Layer_1" xmlns="http://www.w3.org/2000/svg" xmlns:xlink="http://www.w3.org/1999/xlink" x="0px" y="0px"
	 width="100%" viewBox="0 0 1920 2238" enable-background="new 0 0 1920 2238" xml:space="preserve" overflow="visible">
<path fill="none" opacity="1.000000" stroke="#f2cead" stroke-linecap="round" stroke-linejoin="round" stroke-width="5.000000"
	d="
M133.000000,1719.000000 
	C131.892883,1721.569946 135.089783,1723.960205 132.148804,1727.137695 
	C115.933243,1744.659302 107.063828,1766.154663 102.160301,1789.034302 
	C91.604233,1838.288330 99.696190,1885.330688 119.837502,1931.071533 
	C133.912689,1963.036255 148.788681,1994.634277 162.346329,2026.854248 
	C176.020035,2059.350098 201.863678,2077.910889 236.963425,2084.204102 
	C258.935455,2088.143311 280.924957,2087.833252 302.999786,2088.024414 
	C323.645477,2088.203125 343.760773,2092.103027 364.080505,2095.521729 
	C387.279907,2099.425293 410.437531,2103.917969 433.955048,2106.422119 
	C454.055298,2108.562744 474.008148,2107.701660 494.000763,2107.768555 
	C508.118225,2107.815674 522.075745,2104.696289 536.071716,2102.446289 
	C546.123108,2100.830078 556.499084,2098.974121 567.010376,2099.879639 
	C575.689697,2100.626953 584.418335,2099.771484 593.000000,2098.000000 
"/>
<path fill="none" opacity="1.000000" stroke="#f2cead" stroke-linecap="round" stroke-linejoin="round" stroke-width="5.000000"
	d="
M787.000000,612.000000 
	C776.036438,606.336426 773.811646,595.802246 770.794922,585.057556 
	C764.471130,562.534424 756.903259,540.362976 750.043762,517.986572 
	C746.954773,507.909668 746.031372,497.423737 747.167358,487.018280 
	C747.951965,479.831696 751.450867,472.831818 759.065063,471.329987 
	C764.576721,470.242859 769.016479,473.282928 773.380127,478.693420 
	C785.025269,493.132141 786.540833,509.010101 783.822876,525.971619 
	C782.863770,531.957092 782.483765,537.535767 785.032471,542.984802 
	C794.267822,562.729553 793.241272,583.399170 789.862793,603.977478 
	C785.539124,630.312744 778.153198,655.966248 768.711060,680.890564 
	C766.208557,687.496338 761.875244,693.164307 754.357056,697.604553 
	C741.862183,704.983948 731.702332,716.190125 726.963928,730.988464 
	C721.788208,747.152771 708.854858,754.379700 694.047119,760.121582 
	C658.662476,773.842346 622.941284,786.617188 588.850952,803.702637 
	C560.113525,818.105225 539.040771,839.296387 524.061707,867.033325 
	C500.098450,911.406250 479.439911,957.288269 463.034546,1005.011902 
	C452.685486,1035.117432 445.783508,1066.182861 437.982147,1096.995483 
	C431.725189,1121.708252 422.368286,1145.343994 413.079834,1169.031250 
	C399.168091,1204.508911 378.762573,1237.094849 367.649719,1273.894165 
	C363.271881,1288.390991 363.210327,1302.750244 364.386139,1316.968018 
	C366.026489,1336.803467 359.214264,1350.602051 342.030182,1360.054810 
	C329.208618,1367.107910 317.808502,1375.726929 311.941528,1389.975952 
	C309.014404,1397.084839 308.650177,1404.674072 307.114014,1412.023804 
	C302.421814,1434.474487 289.043243,1452.181396 275.907288,1469.931396 
	C263.337372,1486.916382 249.999954,1503.333252 236.999954,1520.000000 
"/>
<path fill="none" opacity="1.000000" stroke="#f2cead" stroke-linecap="round" stroke-linejoin="round" stroke-width="5.000000"
	d="
M1391.000000,1652.000000 
	C1399.705200,1643.745117 1411.620239,1644.223511 1422.081543,1641.290894 
	C1448.831787,1633.792480 1476.905518,1632.198975 1503.877441,1635.894531 
	C1525.189819,1638.814575 1547.141846,1638.138428 1568.069702,1644.780151 
	C1577.149780,1647.661987 1585.358521,1651.168213 1591.997437,1658.002441 
	C1604.197754,1670.561401 1616.700317,1682.769775 1630.988159,1693.016479 
	C1645.713379,1703.576660 1660.837036,1711.547485 1678.979614,1700.965088 
	C1683.897217,1698.096680 1686.663574,1701.615845 1690.013428,1703.980957 
	C1704.069336,1713.904907 1718.499390,1717.765747 1735.172607,1709.341553 
	C1740.090332,1706.857178 1741.997437,1699.578857 1750.391479,1701.454224 
	C1759.354004,1711.956787 1762.463379,1726.396484 1765.590210,1740.093506 
	C1769.217163,1755.981689 1771.423096,1772.505371 1769.926636,1788.993286 
	C1766.302246,1828.927124 1756.458984,1867.249878 1737.921509,1902.959229 
	C1721.421387,1934.744019 1699.953735,1962.536865 1669.993408,1982.990356 
	C1655.213501,1993.080444 1639.629639,2000.639526 1620.996338,2000.132935 
	C1612.762451,1999.908936 1605.926514,1996.541504 1599.013672,1992.973511 
	C1588.514404,1987.554199 1577.923096,1982.648315 1566.010376,1980.928223 
	C1547.611694,1978.271851 1530.511108,1983.815186 1514.163208,1990.404907 
	C1502.846313,1994.966553 1491.599854,1999.869385 1481.442871,2008.331177 
	C1470.356445,2017.567261 1454.449585,2020.432617 1439.976440,2023.901978 
	C1394.319824,2034.846313 1348.133667,2041.770264 1300.998901,2041.076050 
	C1290.878418,2040.926880 1281.567017,2045.686523 1270.989014,2045.299683 
	C1221.926880,2043.505371 1169.212158,2037.732056 1130.796997,2023.927002 
	C1120.077026,2050.413086 1108.613892,2076.515869 1089.021362,2098.019531 
	C1087.533936,2099.652100 1087.250366,2101.861328 1087.000000,2104.000000 
"/>
<path fill="none" opacity="1.000000" stroke="#f2cead" stroke-linecap="round" stroke-linejoin="round" stroke-width="4.000000"
	d="
M1128.000000,607.000000 
	C1134.961670,601.314148 1136.480591,592.825500 1138.919067,584.974854 
	C1146.145264,561.711792 1153.218262,538.395569 1159.900269,514.971558 
	C1162.876831,504.537292 1164.657715,493.934753 1161.110474,482.964264 
	C1157.342041,471.309326 1149.000732,465.197296 1137.150879,477.149628 
	C1124.564697,489.844727 1122.581421,506.093933 1126.119263,522.975037 
	C1127.781006,530.904541 1129.006592,540.307068 1124.529785,545.602478 
	C1115.168701,556.674988 1117.132568,568.408508 1119.220093,579.960205 
	C1125.809082,616.423523 1140.611206,650.036804 1156.975464,683.012146 
	C1159.657959,688.417419 1165.667725,689.890503 1169.484741,694.607727 
	C1177.294678,704.259521 1183.196045,714.868835 1186.560669,726.131226 
	C1190.544678,739.466675 1199.037231,747.796814 1210.106934,753.802979 
	C1223.320068,760.972046 1236.910889,767.992798 1251.149902,772.529480 
	C1260.497314,775.507629 1270.442749,777.328064 1278.900757,782.173157 
	C1307.394287,798.495483 1339.459351,808.712891 1364.841797,830.187012 
	C1386.192749,848.250488 1399.653442,872.611938 1409.655518,898.135010 
	C1421.488892,928.331299 1432.628296,958.840271 1442.267578,989.916992 
	C1456.464600,1035.687744 1468.704468,1081.994019 1482.268677,1127.920654 
	C1494.510254,1169.369995 1505.127319,1211.327759 1519.890747,1252.039551 
	C1527.618652,1273.350098 1541.443604,1290.371094 1556.040039,1306.964722 
	C1569.753296,1322.554443 1572.247925,1340.066406 1568.332031,1360.065063 
	C1565.711182,1373.449707 1568.785156,1387.191406 1576.175171,1398.889404 
	C1583.172607,1409.966187 1590.317017,1421.063843 1599.000000,1431.000000 
"/>
<path fill="none" opacity="1.000000" stroke="#f2cead" stroke-linecap="round" stroke-linejoin="round" stroke-width="4.000000"
	d="
M1109.000000,528.000000 
	C1102.744019,496.641785 1107.913330,464.238190 1100.197998,432.951172 
	C1098.582886,426.402100 1096.341797,419.953430 1093.645386,414.165192 
	C1086.752441,399.368500 1082.740234,384.004944 1082.192017,367.993439 
	C1081.441162,346.060120 1060.981567,328.830719 1040.016357,325.883575 
	C1017.349670,322.697174 996.089844,328.940826 975.076599,335.254974 
	C952.147095,342.144897 930.046814,341.464142 908.027283,332.929596 
	C898.587341,329.270752 888.942749,326.293121 878.985413,325.124451 
	C851.611389,321.911652 829.291931,339.071320 821.041077,361.015442 
	C819.230713,365.830292 820.329407,371.001373 819.958862,375.996948 
	C818.860840,390.801758 811.144226,403.708344 807.738770,417.937469 
	C803.620239,435.145935 802.336182,452.513916 800.899170,469.991699 
	C799.502441,486.979248 800.851868,504.047119 798.225098,521.034790 
	C796.449341,532.518372 799.737244,544.301270 803.431030,554.849060 
	C810.061584,573.783142 807.882996,592.206543 805.000000,611.000000 
"/>
<path fill="none" opacity="1.000000" stroke="#f2cead" stroke-linecap="round" stroke-linejoin="round" stroke-width="4.000000"
	d="
M663.000000,770.000000 
	C658.232117,743.445862 658.146118,717.721375 673.847656,693.899597 
	C679.730652,684.974182 687.035583,677.147705 695.240295,671.339417 
	C719.593811,654.099182 727.676147,630.291260 728.139709,602.002319 
	C728.453979,582.823364 724.292358,564.093201 723.899902,545.002075 
	C723.381042,519.759277 728.497986,495.370331 739.639099,473.322968 
	C745.857239,461.017700 745.907715,449.189667 743.478516,438.114380 
	C736.732727,407.358704 742.883301,377.936554 747.589966,347.935669 
	C749.798767,333.857025 751.677795,320.153412 762.141052,310.147522 
	C780.127380,292.947388 795.760010,274.041168 809.119507,253.076141 
	C813.631531,245.995392 822.215942,242.985626 827.997681,236.999695 
	C824.341858,223.229630 828.770325,210.770767 835.191223,199.105255 
	C838.769287,192.604630 840.268127,187.096573 837.187622,179.919479 
	C834.234375,173.038651 833.678406,165.236389 836.103271,158.034775 
	C844.450012,133.246140 850.605347,107.008797 879.942627,96.834511 
	C894.976807,91.620598 908.545044,82.844315 924.976135,80.807549 
	C959.351196,76.546478 991.345398,80.232056 1020.108643,101.855492 
	C1044.875977,120.474915 1058.212402,143.220154 1052.108643,175.020859 
	C1051.449341,178.455475 1051.796875,181.690353 1054.806519,185.167496 
	C1068.415527,200.890457 1073.528076,219.313095 1070.060181,240.010086 
	C1069.461060,243.586914 1070.322388,245.972244 1074.953857,247.177322 
	C1096.522949,252.789444 1109.505981,269.458099 1121.679565,286.232574 
	C1125.908081,292.059113 1131.493774,295.840851 1136.039795,300.964752 
	C1147.805786,314.226471 1152.374634,330.908264 1157.854370,347.049438 
	C1161.614258,358.124786 1166.327393,369.626099 1166.525635,381.008270 
	C1166.967651,406.360992 1169.774902,431.679596 1168.565552,456.979218 
	C1168.219971,464.207520 1171.320190,469.270569 1174.295166,473.806427 
	C1190.177368,498.022858 1195.472168,524.788635 1194.845703,552.996582 
	C1194.519287,567.694641 1190.464966,582.226135 1191.112549,596.995056 
	C1192.009644,617.454407 1197.608765,636.151794 1212.935059,651.066711 
	C1225.837769,663.623230 1239.747070,675.499939 1247.927612,692.035767 
	C1254.290283,704.897278 1257.167603,718.496521 1255.062256,733.009033 
	C1253.053223,746.858398 1257.817749,759.843994 1261.000000,773.000000 
"/>
<path fill="none" opacity="1.000000" stroke="#f2cead" stroke-linecap="round" stroke-linejoin="round" stroke-width="3.000000"
	d="
M1345.000000,973.000000 
	C1332.617310,1034.131592 1317.172119,1094.598755 1305.814087,1155.965576 
	C1300.597168,1184.151001 1297.968628,1212.485596 1295.890137,1240.991943 
	C1292.951782,1281.289551 1292.987427,1321.660767 1291.508057,1361.981934 
	C1290.379761,1392.739380 1289.890015,1423.309814 1291.802002,1454.012329 
	C1292.503540,1465.277466 1290.617188,1476.682495 1289.750366,1487.980835 
	C1288.519653,1504.024780 1290.831787,1519.483765 1293.986206,1535.002808 
	C1297.128906,1550.463623 1300.198853,1565.937988 1305.000000,1581.000000 
"/>
<path fill="none" opacity="1.000000" stroke="#f2cead" stroke-linecap="round" stroke-linejoin="round" stroke-width="4.000000"
	d="
M729.000000,2075.000000 
	C730.005676,2076.644043 732.155273,2076.483887 732.923401,2075.899414 
	C749.940552,2062.948486 771.466736,2060.628418 790.190796,2051.386475 
	C828.186462,2032.632446 861.579102,2008.245850 891.061646,1978.060181 
	C899.136780,1969.792236 905.491333,1960.176636 914.529297,1952.449463 
	C920.956238,1946.954712 923.349915,1936.470947 926.724609,1927.891602 
	C927.458008,1926.026978 928.244812,1923.919556 929.077698,1922.034302 
	C933.763123,1911.428955 933.469360,1906.193237 924.918152,1899.098633 
	C896.795166,1875.766602 873.120911,1848.120361 849.184082,1820.838501 
	C827.115295,1795.685791 806.204895,1769.405273 787.327698,1741.776123 
	C778.520630,1728.885620 767.817932,1722.439697 753.032043,1719.819214 
	C736.576172,1716.902710 722.043396,1709.078125 707.866638,1700.213257 
	C697.609070,1693.799316 691.788513,1683.863647 685.281921,1674.797607 
	C671.183838,1655.153564 652.849060,1645.963867 629.000061,1647.001343 
	C605.574280,1648.020386 582.500488,1646.411621 561.044128,1635.909912 
	C549.131470,1630.079102 537.755249,1623.163208 525.983154,1617.032349 
	C492.669189,1599.682495 459.745453,1599.956787 426.927032,1618.873413 
	C416.932739,1624.634277 406.180023,1627.201782 393.957947,1625.265381 
	C371.463531,1621.701416 347.456085,1637.376343 342.940613,1652.982788 
	C339.573822,1664.619141 345.190369,1672.058350 356.912842,1675.313843 
	C370.099396,1678.975708 382.342804,1674.369019 394.994110,1673.854858 
	C412.190521,1673.156006 428.568420,1676.987427 445.000000,1681.000000 
"/>
<path fill="none" opacity="1.000000" stroke="#f2cead" stroke-linecap="round" stroke-linejoin="round" stroke-width="3.000000"
	d="
M565.000000,1051.000000 
	C565.809570,1066.237061 569.972229,1080.974731 572.488037,1095.917847 
	C575.014038,1110.921997 577.972168,1125.925903 579.842590,1141.019531 
	C583.386719,1169.618652 586.189880,1198.315186 588.944946,1227.005249 
	C591.535278,1253.980591 593.977844,1280.977661 595.922119,1308.005615 
	C598.412537,1342.625000 602.037964,1377.249512 600.850586,1411.994873 
	C599.516296,1451.037964 597.561829,1490.054321 594.424561,1529.034180 
	C593.040283,1546.234009 591.462769,1563.640381 592.084717,1580.996948 
	C592.589600,1595.087646 590.811890,1609.006958 590.000000,1623.000000 
"/>
<path fill="none" opacity="1.000000" stroke="#f2cead" stroke-linecap="round" stroke-linejoin="round" stroke-width="3.000000"
	d="
M797.000000,1721.000000 
	C814.123718,1747.708740 834.774841,1771.665283 854.895264,1796.086304 
	C891.698792,1840.756348 932.478699,1881.513550 978.214294,1916.721558 
	C1042.018188,1965.838989 1112.800049,2001.330933 1191.955688,2019.196289 
	C1216.503052,2024.736572 1241.175903,2029.115967 1265.898804,2033.562622 
	C1274.195312,2035.055054 1283.682251,2031.255371 1291.000000,2038.000000 
"/>
<path fill="none" opacity="1.000000" stroke="#f2cead" stroke-linecap="round" stroke-linejoin="round" stroke-width="3.000000"
	d="
M340.000000,1664.000000 
	C327.666534,1666.217041 320.095825,1673.579468 318.894196,1682.986450 
	C316.562805,1701.238403 332.193207,1709.289795 344.992798,1708.808472 
	C351.365906,1708.568848 358.235962,1708.130493 363.934692,1704.885376 
	C374.543579,1698.844116 386.231812,1699.739624 396.937683,1701.401489 
	C420.960358,1705.130371 444.863739,1709.711792 468.074738,1717.785034 
	C501.115875,1729.277466 532.122009,1745.007935 562.921448,1761.149902 
	C593.308533,1777.075562 624.060852,1792.260132 655.140259,1806.698120 
	C669.729004,1813.475342 684.361328,1820.653076 702.034119,1819.544067 
	C715.356201,1818.708252 727.576050,1827.097168 739.946594,1832.131226 
	C787.136719,1851.334473 833.563599,1872.370117 880.892273,1891.269653 
	C884.411743,1892.675049 889.882935,1893.562988 891.000000,1899.000000 
"/>
<path fill="none" opacity="1.000000" stroke="#f2cead" stroke-linecap="round" stroke-linejoin="round" stroke-width="4.000000"
	d="
M226.000000,1689.000000 
	C218.666855,1686.999756 216.825256,1679.517334 212.096786,1674.900879 
	C206.101654,1669.047485 199.766693,1667.192749 191.996185,1670.490967 
	C186.087326,1672.999146 183.234222,1676.386353 186.930328,1683.038696 
	C192.017654,1692.194824 196.236160,1701.759399 202.896774,1710.082642 
	C212.098114,1721.580688 222.823730,1725.101196 233.859848,1716.813354 
	C260.906464,1696.502197 287.531219,1675.886108 309.339600,1649.278320 
	C329.047638,1625.233398 322.922363,1586.986816 297.075806,1570.878418 
	C286.564453,1564.327271 275.217316,1559.892456 264.031525,1554.928955 
	C261.704742,1553.896362 259.232117,1554.048462 256.885437,1552.140991 
	C234.812042,1534.199219 208.183289,1527.479126 180.968506,1523.200317 
	C162.408676,1520.282104 144.053558,1515.495117 124.997452,1515.870728 
	C118.931046,1515.990356 114.014740,1517.497681 109.994225,1521.994873 
	C104.016380,1528.681396 97.788849,1535.158325 92.070633,1542.058472 
	C87.924812,1547.061157 89.160942,1551.994385 94.014259,1555.982666 
	C101.184776,1561.875244 117.598618,1561.781250 127.013565,1556.022217 
	C130.701294,1553.766357 133.378357,1549.530762 138.500000,1550.000000 
"/>
<path fill="none" opacity="1.000000" stroke="#f2cead" stroke-linecap="round" stroke-linejoin="round" stroke-width="5.000000"
	d="
M1546.000000,2126.000000 
	C1545.707886,2121.996582 1542.079102,2118.059326 1545.076172,2114.056885 
	C1547.753052,2110.481934 1551.537476,2109.474609 1556.014404,2110.956299 
	C1562.024292,2112.945312 1559.299438,2117.155762 1559.081909,2121.004639 
	C1558.777832,2126.390625 1556.000610,2128.135010 1550.999268,2128.037354 
	C1537.066162,2127.765381 1523.083008,2126.092773 1510.105591,2121.688721 
	C1486.105957,2113.544189 1461.718018,2107.018066 1436.943726,2102.295166 
	C1421.609009,2099.372070 1405.734131,2099.545410 1389.998047,2099.916504 
	C1374.006958,2100.293945 1357.915405,2098.966064 1342.021851,2100.266602 
	C1323.001709,2101.823486 1303.839111,2102.095947 1284.957397,2105.781494 
	C1277.503296,2107.236816 1269.525146,2107.350098 1261.989502,2107.511719 
	C1249.246704,2107.785156 1236.653931,2109.491455 1224.022339,2110.334961 
	C1203.336060,2111.716797 1182.661377,2112.577148 1162.006470,2111.823975 
	C1138.944336,2110.982666 1115.828125,2109.869629 1093.015259,2105.912109 
	C1088.321045,2105.098145 1083.685669,2105.068115 1079.000000,2105.000000 
"/>
<path fill="none" opacity="1.000000" stroke="#f2cead" stroke-linecap="round" stroke-linejoin="round" stroke-width="4.000000"
	d="
M1458.000000,1495.000000 
	C1467.735718,1496.715820 1475.066528,1489.912354 1482.794556,1486.530518 
	C1517.551392,1471.321045 1553.811646,1467.021484 1590.987061,1469.218140 
	C1616.132812,1470.703979 1635.144287,1483.358276 1647.547852,1506.587524 
	C1636.519653,1512.933594 1624.212524,1515.724243 1612.997192,1520.994019 
	C1587.418213,1533.012939 1566.695679,1549.625610 1557.946045,1577.983398 
	C1554.244507,1589.980591 1553.861206,1602.054077 1557.176270,1613.950928 
	C1559.310547,1621.609985 1555.685303,1622.522461 1550.004517,1621.955200 
	C1534.168701,1620.373657 1533.939575,1620.445435 1525.060425,1606.960205 
	C1514.090454,1590.299561 1497.515381,1583.967041 1478.978638,1582.228027 
	C1467.565063,1581.157227 1456.748657,1580.645142 1445.789307,1575.443848 
	C1432.682129,1569.223511 1418.173706,1568.767456 1403.952515,1574.889648 
	C1388.893799,1581.372437 1373.778198,1583.012451 1356.898438,1579.486206 
	C1326.097656,1573.051758 1297.985596,1581.438843 1272.904541,1600.876831 
	C1254.839111,1614.877808 1237.908081,1630.261108 1218.164185,1642.270020 
	C1196.533325,1655.426514 1172.623169,1661.756836 1148.955566,1668.851807 
	C1101.626465,1683.039917 1054.399536,1697.642456 1006.042542,1708.194946 
	C996.711609,1710.231079 987.295471,1711.818359 977.964417,1713.835449 
	C969.900085,1715.578613 962.326538,1712.198364 955.002869,1708.993408 
	C936.824707,1701.038574 918.311035,1695.074341 897.993835,1695.835815 
	C886.573608,1696.263794 876.203674,1699.648804 866.057129,1704.129272 
	C862.900391,1705.523193 860.225464,1706.242920 856.993652,1705.016724 
	C835.419250,1696.829712 813.136108,1700.797119 791.000000,1700.800537 
	C768.960205,1700.803955 746.634583,1701.947266 725.925171,1691.143433 
	C713.710449,1684.771118 706.027710,1674.020996 698.266296,1663.797852 
	C684.890320,1646.179199 668.936829,1633.709839 647.045776,1628.796143 
	C640.021973,1627.219482 632.766968,1625.677246 626.027893,1626.301147 
	C591.231506,1629.522827 561.524597,1616.019287 533.071472,1598.881348 
	C496.872162,1577.077759 460.033813,1577.524048 423.163849,1595.339111 
	C410.687073,1601.367554 398.588959,1604.155762 385.000305,1604.178345 
	C365.700653,1604.210449 348.899078,1611.410522 335.000000,1625.000000 
"/>
<path fill="none" opacity="1.000000" stroke="#f2cead" stroke-linecap="round" stroke-linejoin="round" stroke-width="5.000000"
	d="
M1014.000000,2046.000000 
	C1003.912476,2050.025146 997.522461,2058.896484 989.100525,2065.135742 
	C958.572571,2087.751221 923.759583,2100.816406 888.005310,2112.016846 
	C866.665161,2118.701660 844.885803,2124.037598 822.941772,2127.645752 
	C793.270325,2132.524170 763.016724,2133.967041 733.021301,2131.716309 
	C697.853088,2129.077393 664.027344,2118.675537 630.065308,2109.751465 
	C620.385925,2107.207764 610.780518,2104.141846 600.962097,2102.190674 
	C596.831055,2101.369629 593.529419,2101.088135 593.500000,2096.000000 
"/>
<path fill="none" opacity="1.000000" stroke="#f2cead" stroke-linecap="round" stroke-linejoin="round" stroke-width="4.000000"
	d="
M932.000000,1911.000000 
	C945.901184,1914.870728 955.069641,1925.911499 965.831482,1934.218262 
	C1007.265808,1966.200928 1050.680664,1994.545532 1099.972046,2013.074219 
	C1103.565430,2014.424805 1106.760620,2016.834473 1110.629517,2019.028931 
	C1102.286011,2043.261353 1090.842041,2065.736328 1076.941650,2086.961914 
	C1069.788086,2097.885498 1061.511353,2107.966309 1052.016724,2117.017578 
	C1038.270142,2130.122803 1021.777283,2135.574707 1003.003113,2136.110107 
	C980.532471,2136.750977 958.718384,2132.767334 937.037292,2127.835938 
	C931.009399,2126.464844 925.803467,2121.774170 919.000000,2123.000000 
"/>
<path fill="none" opacity="1.000000" stroke="#f2cead" stroke-linecap="round" stroke-linejoin="round" stroke-width="4.000000"
	d="
M1754.000000,1525.000000 
	C1763.863525,1534.259277 1774.451416,1540.774292 1789.027710,1537.110352 
	C1801.663574,1533.934082 1804.682495,1526.998047 1797.023193,1516.982300 
	C1794.427002,1513.587280 1791.145630,1510.380371 1789.258179,1506.861572 
	C1783.145752,1495.465942 1773.409546,1492.509033 1762.017212,1494.121582 
	C1730.731445,1498.550415 1698.894409,1500.321167 1669.011841,1512.030151 
	C1663.595703,1514.152344 1657.309937,1515.519897 1653.181641,1519.203491 
	C1637.319824,1533.356567 1617.517944,1539.874023 1599.071289,1549.141968 
	C1570.830200,1563.330688 1560.303711,1601.896240 1582.028931,1627.975830 
	C1593.226440,1641.417603 1605.961182,1653.357544 1618.947754,1665.057983 
	C1626.220459,1671.610229 1634.342407,1676.995728 1642.060181,1682.921631 
	C1658.693970,1695.693359 1671.584839,1695.153442 1683.001831,1677.001099 
	C1686.989990,1670.660278 1691.356201,1664.524048 1694.882690,1657.937134 
	C1697.510376,1653.028809 1700.979004,1646.608032 1695.762817,1642.286255 
	C1690.673950,1638.069702 1683.978760,1638.752686 1677.944824,1642.920044 
	C1670.784668,1647.865234 1666.648926,1655.648926 1659.303711,1661.364502 
	C1653.998901,1655.052979 1647.849731,1649.345215 1639.000000,1648.000000 
"/>
<path fill="none" opacity="1.000000" stroke="#f2cead" stroke-linecap="round" stroke-linejoin="round" stroke-width="3.000000"
	d="
M603.000000,2019.000000 
	C590.736389,2020.688110 581.797791,2029.831055 570.063416,2033.219604 
	C531.250122,2044.427002 492.299255,2054.414795 452.019562,2059.165771 
	C402.352997,2065.023926 353.416534,2061.744385 305.042572,2049.827148 
	C292.094238,2046.637085 279.515686,2041.720215 267.055328,2036.858154 
	C259.307770,2033.835083 253.285965,2027.253540 245.000000,2025.000000 
"/>
<path fill="none" opacity="1.000000" stroke="#f2cead" stroke-linecap="round" stroke-linejoin="round" stroke-width="3.000000"
	d="
M588.000000,2023.000000 
	C582.000000,2017.744019 575.585693,2022.121704 570.066162,2023.307739 
	C529.403320,2032.046997 488.321991,2038.216553 446.976929,2041.728516 
	C399.204102,2045.786377 351.492981,2045.135986 303.900391,2036.552246 
	C289.576172,2033.968872 275.171265,2028.226196 260.000000,2031.000000 
"/>
<path fill="none" opacity="1.000000" stroke="#f2cead" stroke-linecap="round" stroke-linejoin="round" stroke-width="3.000000"
	d="
M1232.000000,1811.000000 
	C1231.393921,1815.262573 1234.361084,1817.635864 1237.024536,1819.972046 
	C1278.177368,1856.067505 1323.682739,1885.064819 1376.051636,1901.838623 
	C1425.552612,1917.693848 1475.920898,1921.311890 1527.060425,1909.256348 
	C1534.713989,1907.452148 1540.498047,1900.660645 1549.000000,1902.000000 
"/>
<path fill="none" opacity="1.000000" stroke="#f2cead" stroke-linecap="round" stroke-linejoin="round" stroke-width="3.000000"
	d="
M1213.000000,1793.000000 
	C1220.752686,1801.105835 1228.781372,1808.030518 1239.822876,1812.443237 
	C1255.036255,1818.523071 1267.768311,1829.679932 1281.882812,1838.194336 
	C1332.510010,1868.734375 1386.668091,1889.859619 1445.055298,1898.631836 
	C1473.046997,1902.837280 1501.633545,1902.253052 1530.003296,1900.042725 
	C1533.110474,1899.800781 1536.438110,1899.361572 1539.000000,1902.000000 
"/>
<path fill="none" opacity="1.000000" stroke="#f2cead" stroke-linecap="round" stroke-linejoin="round" stroke-width="3.000000"
	d="
M1035.000000,643.000000 
	C1043.351929,653.549377 1047.840576,665.225403 1047.166748,679.008179 
	C1046.794800,686.619629 1047.230591,694.322388 1047.726196,702.017639 
	C1049.093018,723.243164 1061.630493,737.086426 1077.109741,748.855713 
	C1088.775635,757.725586 1099.836670,766.522095 1105.075928,780.972473 
	C1112.534546,801.543823 1107.521851,820.235840 1096.933838,837.960510 
	C1079.656860,866.882751 1079.456787,896.569824 1092.153198,926.935913 
	C1093.071655,929.132446 1092.509888,931.026123 1093.000000,933.000000 
"/>
<path fill="none" opacity="1.000000" stroke="#f2cead" stroke-linecap="round" stroke-linejoin="round" stroke-width="3.000000"
	d="
M1321.000000,1660.000000 
	C1307.133545,1665.200928 1292.317505,1664.643188 1277.970947,1666.807007 
	C1238.685303,1672.732178 1199.630981,1679.358154 1160.907471,1688.613037 
	C1127.366089,1696.629639 1094.370972,1706.479980 1060.967773,1714.871582 
	C1058.530029,1715.483887 1057.069336,1717.138672 1055.000000,1718.000000 
"/>
<path fill="none" opacity="1.000000" stroke="#f2cead" stroke-linecap="round" stroke-linejoin="round" stroke-width="3.000000"
	d="
M875.000000,931.000000 
	C877.164734,954.997375 871.832581,978.022583 866.016418,1001.004150 
	C858.355774,1031.273682 862.316284,1061.279785 869.125122,1090.971313 
	C876.443787,1122.886230 883.772644,1154.834229 894.032593,1185.989258 
	C896.015015,1192.008911 893.919678,1196.689697 890.000000,1201.000000 
"/>
<path fill="none" opacity="1.000000" stroke="#f2cead" stroke-linecap="round" stroke-linejoin="round" stroke-width="3.000000"
	d="
M684.000000,1958.500000 
	C683.828125,1954.774292 686.273193,1953.151611 688.884033,1950.867432 
	C715.953857,1927.184082 742.651123,1903.096191 762.998352,1872.998901 
	C764.344543,1871.007568 765.795532,1869.069580 766.932495,1866.963501 
	C767.350525,1866.189209 767.000000,1865.000000 767.000000,1863.393555 
	C747.853699,1855.861694 728.642029,1847.922729 709.070129,1840.807129 
	C700.605103,1837.729492 693.573853,1838.946045 687.047791,1844.061035 
	C668.998596,1858.208008 653.439880,1875.134644 636.086426,1890.100220 
	C606.688110,1915.453247 575.495544,1938.154663 540.901917,1955.807739 
	C530.644897,1961.041870 520.534912,1967.439819 507.996216,1967.252319 
	C503.456146,1967.184326 498.873901,1970.004517 495.000000,1973.000000 
"/>
<path fill="none" opacity="1.000000" stroke="#f2cead" stroke-linecap="round" stroke-linejoin="round" stroke-width="4.000000"
	d="
M1822.000000,1567.000000 
	C1821.985840,1561.417847 1817.314453,1558.338745 1814.929199,1554.039307 
	C1811.538086,1547.926880 1806.083984,1543.287109 1799.076660,1545.270630 
	C1790.407959,1547.724609 1786.027222,1559.180542 1787.887573,1568.023682 
	C1790.874634,1582.223267 1796.759033,1595.550293 1799.308105,1609.945435 
	C1801.080811,1619.956787 1803.312378,1629.793701 1802.980103,1639.999390 
	C1802.553589,1653.101685 1804.799316,1658.793091 1815.002441,1659.978638 
	C1826.560425,1661.321777 1839.016846,1651.965088 1841.051758,1641.009644 
	C1843.639404,1627.078003 1839.041504,1614.067749 1835.775879,1601.056274 
	C1832.908691,1589.631958 1829.228271,1578.253540 1823.375854,1568.046265 
	C1821.865967,1567.931152 1820.987061,1568.161743 1819.958130,1568.945068 
	C1806.702026,1579.036865 1798.467651,1575.608643 1796.064819,1558.990601 
	C1795.840698,1557.441528 1794.655884,1557.007202 1794.000000,1556.000000 
"/>
<path fill="none" opacity="1.000000" stroke="#f2cead" stroke-linecap="round" stroke-linejoin="round" stroke-width="3.000000"
	d="
M853.000000,807.000000 
	C838.622620,831.571777 835.973267,857.016724 845.852661,884.053833 
	C852.533936,902.338867 858.102905,920.975525 857.140503,941.006775 
	C856.408203,956.247986 850.916321,970.315979 847.926392,984.984985 
	C844.120239,1003.658997 845.021851,1022.011292 851.291565,1039.897827 
	C852.139465,1042.316528 852.788696,1044.536621 853.000000,1047.000000 
"/>
<path fill="none" opacity="1.000000" stroke="#f2cead" stroke-linecap="round" stroke-linejoin="round" stroke-width="3.000000"
	d="
M517.000000,1523.000000 
	C496.910248,1460.806519 448.095337,1426.953125 387.998718,1420.010986 
	C361.569366,1416.957886 336.609100,1423.461182 312.016327,1432.046753 
	C308.681488,1433.211060 305.422943,1433.562622 302.000000,1433.000000 
"/>
<path fill="none" opacity="1.000000" stroke="#f2cead" stroke-linecap="round" stroke-linejoin="round" stroke-width="4.000000"
	d="
M1510.000000,1635.000000 
	C1510.000000,1607.983887 1492.545410,1595.441284 1464.005493,1602.024048 
	C1459.102417,1603.154785 1455.393677,1603.065308 1450.809082,1599.228149 
	C1434.515991,1585.591553 1416.802734,1584.783447 1397.920654,1594.851196 
	C1384.798828,1601.847900 1370.218018,1602.174683 1356.033569,1598.856689 
	C1331.912476,1593.214355 1310.730225,1598.915527 1290.959351,1612.942627 
	C1274.383179,1624.703125 1258.686768,1637.470459 1244.000000,1651.500000 
"/>
<path fill="none" opacity="1.000000" stroke="#f2cead" stroke-linecap="round" stroke-linejoin="round" stroke-width="3.000000"
	d="
M933.000000,831.000000 
	C931.625244,853.199829 936.630249,874.215698 943.888184,895.039001 
	C955.847168,929.349731 959.384338,964.419128 949.888123,999.970093 
	C946.371826,1013.134094 940.421570,1025.510620 934.882996,1037.947876 
	C932.945251,1042.299438 933.106323,1046.580444 933.000000,1051.000000 
"/>
<path fill="none" opacity="1.000000" stroke="#f2cead" stroke-linecap="round" stroke-linejoin="round" stroke-width="3.000000"
	d="
M930.000000,1910.000000 
	C924.230042,1912.849976 919.572205,1908.926270 915.079651,1906.829346 
	C901.667725,1900.569702 886.864380,1901.103027 872.908508,1897.339233 
	C849.644592,1891.064819 826.823914,1883.575562 804.003723,1875.988770 
	C789.348450,1871.116455 789.656311,1871.291382 779.941589,1883.955200 
	C757.031494,1913.820679 729.082825,1937.837280 696.131348,1956.235229 
	C689.906799,1959.710449 681.817749,1956.552979 677.000000,1963.000000 
"/>
<path fill="none" opacity="1.000000" stroke="#f2cead" stroke-linecap="round" stroke-linejoin="round" stroke-width="4.000000"
	d="
M131.000000,1608.000000 
	C140.079376,1615.474976 136.740814,1626.006714 134.478989,1633.849731 
	C129.210297,1652.119385 128.889450,1670.436401 128.999496,1689.000000 
	C129.003448,1689.666626 128.866257,1690.366211 129.020721,1690.994873 
	C130.557861,1697.251953 134.641785,1704.116089 126.937981,1708.900146 
	C118.712959,1714.007812 109.565048,1713.257324 101.058121,1709.854736 
	C91.517235,1706.038330 88.258003,1697.191040 89.217377,1688.022705 
	C91.751762,1663.802734 96.471771,1639.916138 105.080894,1617.030396 
	C109.792107,1604.506470 116.111694,1600.773071 125.040642,1602.822998 
	C128.423904,1603.599609 129.289261,1605.648438 130.500000,1608.000000 
"/>
<path fill="none" opacity="1.000000" stroke="#f2cead" stroke-linecap="round" stroke-linejoin="round" stroke-width="3.000000"
	d="
M1017.000000,903.000000 
	C1013.757141,928.630371 1018.059814,953.358398 1024.847534,978.041931 
	C1032.619385,1006.304321 1028.502686,1033.452759 1016.277039,1060.126953 
	C1008.973145,1076.062500 1003.379150,1092.992065 1003.000000,1111.000000 
"/>
<path fill="none" opacity="1.000000" stroke="#f2cead" stroke-linecap="round" stroke-linejoin="round" stroke-width="3.000000"
	d="
M914.000000,1955.000000 
	C916.936157,1958.660278 914.054626,1962.395752 912.768066,1964.879883 
	C886.406982,2015.781128 847.010742,2051.089111 791.067566,2067.234131 
	C773.242371,2072.378418 755.610474,2076.662842 737.000000,2076.000000 
"/>
<path fill="none" opacity="1.000000" stroke="#f2cead" stroke-linecap="round" stroke-linejoin="round" stroke-width="4.000000"
	d="
M298.500000,1686.000000 
	C299.666687,1691.333374 299.743408,1697.246460 302.212189,1701.887085 
	C308.619507,1713.930908 319.225281,1720.676636 333.001740,1720.884277 
	C346.327026,1721.085449 359.665192,1720.247192 373.000336,1720.018799 
	C397.613770,1719.597412 421.915436,1723.642334 444.866089,1731.396362 
	C492.308197,1747.424927 537.789795,1768.437622 581.958679,1792.077148 
	C608.968628,1806.532959 637.074158,1818.551514 665.025940,1831.298584 
	C665.994812,1834.663696 662.930969,1836.115356 660.967346,1837.965332 
	C630.212280,1866.936157 600.339355,1896.931274 566.894653,1922.864136 
	C550.032776,1935.938721 532.630249,1948.418335 514.000671,1959.001221 
	C511.163483,1960.612671 508.345978,1962.248901 508.000000,1966.000000 
"/>
<path fill="none" opacity="1.000000" stroke="#f2cead" stroke-linecap="round" stroke-linejoin="round" stroke-width="3.000000"
	d="
M885.000000,917.000000 
	C901.518250,947.385986 904.729492,978.682922 894.269104,1012.084290 
	C885.779236,1039.193481 882.062134,1066.976685 895.978455,1094.011108 
	C899.090210,1100.056152 901.594727,1106.458252 907.000000,1111.000000 
"/>
<path fill="none" opacity="1.000000" stroke="#f2cead" stroke-linecap="round" stroke-linejoin="round" stroke-width="3.000000"
	d="
M937.000000,967.000000 
	C937.599792,983.866638 934.778259,1000.251953 928.914307,1015.968018 
	C919.952148,1039.987305 918.332397,1064.253174 925.022156,1088.994019 
	C931.404480,1112.597412 936.516724,1136.312988 933.000000,1161.000000 
"/>
<path fill="none" opacity="1.000000" stroke="#f2cead" stroke-linecap="round" stroke-linejoin="round" stroke-width="4.000000"
	d="
M993.000000,1135.000000 
	C993.146484,1151.361694 988.684937,1167.054688 985.966309,1182.994263 
	C982.437439,1203.684326 978.490601,1224.304932 975.143433,1245.023193 
	C974.445312,1249.343994 971.710388,1253.311157 972.905701,1258.023926 
	C973.203369,1259.197266 971.745605,1261.655273 972.084961,1261.856934 
	C984.149109,1269.027954 975.611694,1279.554932 975.477905,1287.991699 
	C975.291138,1299.765259 975.241028,1311.374023 977.000000,1323.000000 
"/>
<path fill="none" opacity="1.000000" stroke="#f2cead" stroke-linecap="round" stroke-linejoin="round" stroke-width="3.000000"
	d="
M993.000000,987.000000 
	C1001.422913,1015.955078 993.669861,1042.743286 981.996582,1068.998535 
	C973.644226,1087.784180 969.904236,1107.846924 970.504333,1127.984985 
	C970.929077,1142.237549 971.878296,1156.835815 975.000000,1171.000000 
"/>
<path fill="none" opacity="1.000000" stroke="#f2cead" stroke-linecap="round" stroke-linejoin="round" stroke-width="3.000000"
	d="
M917.000000,749.000000 
	C892.726868,798.008301 896.572937,846.648376 919.026306,894.987793 
	C924.646790,907.088074 928.866028,919.491394 929.000000,933.000000 
"/>
<path fill="none" opacity="1.000000" stroke="#f2cead" stroke-linecap="round" stroke-linejoin="round" stroke-width="3.000000"
	d="
M1069.000000,803.000000 
	C1070.275513,814.765991 1067.309692,825.862854 1064.068970,837.020020 
	C1058.122437,857.492126 1058.116333,877.649048 1065.780151,898.082458 
	C1072.718994,916.583313 1077.744751,935.899841 1075.855225,955.986389 
	C1074.612915,969.193542 1074.322144,982.749817 1068.000000,995.000000 
"/>
<path fill="none" opacity="1.000000" stroke="#f2cead" stroke-linecap="round" stroke-linejoin="round" stroke-width="3.000000"
	d="
M1105.000000,717.000000 
	C1112.718506,732.149109 1123.244019,745.761169 1127.199219,762.954163 
	C1132.102417,784.268127 1131.556396,805.556580 1122.515625,824.772095 
	C1111.840210,847.461975 1105.945923,870.122498 1109.000000,895.000000 
"/>
<path fill="none" opacity="1.000000" stroke="#f2cead" stroke-linecap="round" stroke-linejoin="round" stroke-width="3.000000"
	d="
M935.000000,1723.000000 
	C941.411682,1728.360962 949.640381,1729.844849 956.840149,1733.330200 
	C983.562500,1746.265991 1007.331970,1763.841064 1030.057007,1782.932129 
	C1058.651855,1806.953979 1084.612427,1833.688721 1111.009155,1859.990845 
	C1114.627197,1863.595825 1117.866699,1868.009399 1124.000000,1867.000000 
"/>
<path fill="none" opacity="1.000000" stroke="#f2cead" stroke-linecap="round" stroke-linejoin="round" stroke-width="3.000000"
	d="
M478.000000,1747.000000 
	C473.000000,1751.526855 467.947906,1747.462646 463.007965,1746.926636 
	C406.546478,1740.798828 353.731049,1751.377686 305.000000,1781.000000 
"/>
<path fill="none" opacity="1.000000" stroke="#f2cead" stroke-linecap="round" stroke-linejoin="round" stroke-width="3.000000"
	d="
M817.000000,1987.000000 
	C819.291443,1991.783203 815.544128,1994.087891 813.020691,1997.017822 
	C783.925598,2030.804199 748.181763,2054.719238 705.982849,2068.949219 
	C695.096680,2072.620117 684.146912,2076.373291 672.938354,2078.703369 
	C667.291687,2079.877441 661.487061,2082.385986 654.818848,2079.405273 
	C650.763062,2077.592285 645.018433,2078.608398 639.932251,2080.845947 
	C625.437805,2087.222656 609.415588,2089.246826 595.000000,2096.000000 
"/>
<path fill="none" opacity="1.000000" stroke="#f2cead" stroke-linecap="round" stroke-linejoin="round" stroke-width="3.000000"
	d="
M989.000000,1731.000000 
	C992.540039,1729.236450 995.497620,1731.092041 997.952515,1733.059204 
	C1022.679138,1752.875366 1048.265503,1771.650635 1070.069824,1794.934692 
	C1088.926636,1815.071655 1106.645020,1836.314453 1121.380737,1859.395386 
	C1128.730835,1870.908081 1140.651489,1878.048828 1146.454468,1889.281860 
	C1154.208984,1904.292603 1167.178833,1912.894653 1179.112183,1922.865723 
	C1206.180176,1945.482788 1236.120728,1963.639771 1270.096680,1973.672729 
	C1283.566040,1977.650146 1296.893799,1984.732544 1312.052612,1981.227661 
	C1314.680908,1980.619873 1318.000000,1983.000000 1321.000000,1984.000000 
"/>
<path fill="none" opacity="1.000000" stroke="#f2cead" stroke-linecap="round" stroke-linejoin="round" stroke-width="3.000000"
	d="
M833.000000,1973.000000 
	C831.666687,1973.000000 829.618591,1972.434082 829.104919,1973.083008 
	C817.020386,1988.346924 798.947693,1995.621338 783.841125,2006.785034 
	C746.378906,2034.469116 704.924072,2055.197021 661.914612,2072.791260 
	C658.812195,2074.060547 657.222412,2076.177979 655.000000,2078.000000 
"/>
<path fill="none" opacity="1.000000" stroke="#f2cead" stroke-linecap="round" stroke-linejoin="round" stroke-width="3.000000"
	d="
M849.000000,683.000000 
	C846.607544,695.169922 849.002808,707.066101 850.983765,719.002686 
	C854.052551,737.494629 848.426270,753.348328 835.984131,766.985535 
	C827.513428,776.269714 817.205750,783.881287 811.909058,795.960083 
	C805.323059,810.979065 808.297607,825.930298 810.988037,841.002136 
	C811.402771,843.325623 812.761169,844.207336 815.000000,844.000000 
"/>
<path fill="none" opacity="1.000000" stroke="#f2cead" stroke-linecap="round" stroke-linejoin="round" stroke-width="3.000000"
	d="
M1310.000000,1981.000000 
	C1309.003540,1973.995361 1301.885864,1973.913208 1297.854980,1972.381714 
	C1248.249268,1953.533569 1203.381714,1926.551270 1160.758911,1895.329102 
	C1158.219971,1893.469360 1155.468140,1887.379272 1150.000000,1891.000000 
"/>
<path fill="none" opacity="1.000000" stroke="#f2cead" stroke-linecap="round" stroke-linejoin="round" stroke-width="3.000000"
	d="
M807.000000,683.000000 
	C810.028259,695.967773 807.214539,708.158264 801.985474,719.993591 
	C798.730164,727.361389 795.813416,734.933716 791.910217,741.950073 
	C780.103394,763.174194 782.714844,785.666748 786.251099,807.960144 
	C787.995728,818.958618 790.282593,829.856201 791.000000,841.000000 
"/>
<path fill="none" opacity="1.000000" stroke="#f2cead" stroke-linecap="round" stroke-linejoin="round" stroke-width="3.000000"
	d="
M938.000000,1824.000000 
	C929.300842,1820.864014 925.911987,1812.509521 921.161377,1805.884277 
	C904.407654,1782.519775 885.663330,1760.967651 866.285828,1739.739136 
	C849.092712,1720.903442 828.444214,1717.033325 804.993713,1718.921631 
	C802.356506,1719.134033 801.069336,1721.138672 799.000000,1722.000000 
"/>
<path fill="none" opacity="1.000000" stroke="#f2cead" stroke-linecap="round" stroke-linejoin="round" stroke-width="3.000000"
	d="
M901.000000,733.000000 
	C891.498413,751.510864 882.988159,770.276306 878.839111,790.967773 
	C872.767761,821.245911 876.696716,850.027954 888.953552,878.020325 
	C889.320984,878.859436 889.000000,880.000000 889.000000,881.000000 
"/>
<path fill="none" opacity="1.000000" stroke="#f2cead" stroke-linecap="round" stroke-linejoin="round" stroke-width="3.000000"
	d="
M999.000000,1843.000000 
	C977.024109,1815.566040 962.956787,1782.839600 940.182373,1755.846069 
	C928.944702,1742.526489 916.375610,1730.947876 903.040649,1719.950806 
	C895.643799,1713.850708 887.765015,1715.936768 880.054199,1718.185913 
	C877.092590,1719.049683 875.146423,1721.501099 878.923401,1725.080811 
	C903.939392,1748.790405 921.325623,1777.702393 934.846863,1809.066040 
	C936.678040,1813.313599 940.579834,1817.173462 938.424011,1823.152832 
	C937.792603,1824.904419 938.913208,1830.344482 943.000000,1832.000000 
"/>
<path fill="none" opacity="1.000000" stroke="#f2cead" stroke-linecap="round" stroke-linejoin="round" stroke-width="3.000000"
	d="
M1039.000000,851.000000 
	C1036.695923,863.918274 1033.369751,876.586182 1033.787476,890.006592 
	C1034.197632,903.176880 1037.100586,915.756958 1043.271118,926.849121 
	C1054.140015,946.386841 1060.686523,966.667542 1063.406372,988.950378 
	C1065.643677,1007.280029 1060.835327,1024.378174 1058.848145,1041.982910 
	C1058.437134,1045.623901 1056.882935,1049.190796 1057.000000,1053.000000 
"/>
<path fill="none" opacity="1.000000" stroke="#f2cead" stroke-linecap="round" stroke-linejoin="round" stroke-width="3.000000"
	d="
M1233.000000,1655.000000 
	C1237.917725,1653.432861 1242.071777,1650.766113 1248.195557,1653.573364 
	C1252.878418,1655.719727 1259.437134,1654.694702 1264.979980,1653.866333 
	C1280.038208,1651.616333 1295.002075,1654.887207 1309.999146,1653.986328 
	C1317.999268,1653.505737 1324.676147,1659.129272 1333.019775,1658.172607 
	C1348.299927,1656.420532 1363.688843,1655.633545 1379.021240,1654.231812 
	C1396.644775,1652.620605 1414.381104,1654.927734 1431.985474,1656.200928 
	C1465.651123,1658.635376 1498.471191,1666.211182 1531.000000,1675.000000 
"/>
<path fill="none" opacity="1.000000" stroke="#f2cead" stroke-linecap="round" stroke-linejoin="round" stroke-width="4.000000"
	d="
M98.500000,1574.000000 
	C92.114799,1564.065552 84.459663,1562.455078 78.159622,1571.116089 
	C59.959690,1596.136475 48.247181,1624.061035 45.168011,1655.016724 
	C43.818245,1668.586182 63.162807,1681.884277 75.981720,1676.952515 
	C81.796249,1674.715454 82.754150,1669.088745 82.874565,1663.997070 
	C83.364586,1643.274902 90.393242,1624.247192 96.813362,1604.937988 
	C99.877899,1595.721069 106.596794,1586.637329 101.038155,1575.980103 
	C100.534050,1575.013672 100.115997,1574.217285 99.000000,1574.000000 
"/>
<path fill="none" opacity="1.000000" stroke="#f2cead" stroke-linecap="round" stroke-linejoin="round" stroke-width="4.000000"
	d="
M1162.000000,807.000000 
	C1161.449463,795.243835 1164.648438,783.059204 1158.394287,771.638916 
	C1149.950317,775.789307 1152.908569,782.899597 1153.043823,788.999023 
	C1153.790283,822.679810 1149.652222,855.927368 1143.817505,888.967773 
	C1142.395142,897.022156 1145.091553,906.272888 1138.000000,913.000000 
"/>
<path fill="none" opacity="1.000000" stroke="#f2cead" stroke-linecap="round" stroke-linejoin="round" stroke-width="5.000000"
	d="
M1047.000000,1037.000000 
	C1045.180542,1061.126953 1039.315430,1084.580811 1033.656616,1107.916748 
	C1028.709229,1128.318604 1024.241821,1148.889526 1018.236450,1169.070312 
	C1016.151428,1176.077026 1019.254395,1183.967041 1020.713196,1190.848755 
	C1022.046448,1197.138062 1023.793091,1203.488770 1024.481323,1210.001953 
	C1025.397461,1218.672119 1027.303101,1227.064575 1031.000000,1235.000000 
"/>
<path fill="none" opacity="1.000000" stroke="#f2cead" stroke-linecap="round" stroke-linejoin="round" stroke-width="3.000000"
	d="
M915.000000,1139.000000 
	C917.666687,1158.666626 919.375977,1178.524414 923.252136,1197.949707 
	C927.690979,1220.194824 930.471558,1242.644165 933.947754,1265.008179 
	C934.150391,1266.311646 934.103455,1267.616943 933.092468,1269.064575 
	C928.404419,1275.777588 928.388062,1283.247803 929.957642,1291.008545 
	C932.433899,1303.252686 930.412598,1315.201050 927.000000,1327.000000 
"/>
<path fill="none" opacity="1.000000" stroke="#f2cead" stroke-linecap="round" stroke-linejoin="round" stroke-width="3.000000"
	d="
M825.000000,981.000000 
	C819.248535,963.121704 822.221069,945.854797 829.045715,929.018555 
	C837.646240,907.801208 837.412720,887.096313 825.922302,867.044556 
	C822.505554,861.082031 821.741150,853.662354 816.000000,849.000000 
"/>
<path fill="none" opacity="1.000000" stroke="#f2cead" stroke-linecap="round" stroke-linejoin="round" stroke-width="4.000000"
	d="
M235.000000,1521.000000 
	C258.393036,1529.739990 282.505707,1537.074341 302.929932,1552.095337 
	C317.454102,1562.777222 328.748566,1576.262817 333.986328,1594.004028 
	C336.400238,1602.180298 335.884827,1610.956421 339.000000,1619.000000 
"/>
<path fill="none" opacity="1.000000" stroke="#f2cead" stroke-linecap="round" stroke-linejoin="round" stroke-width="3.000000"
	d="
M151.000000,1573.000000 
	C151.047485,1574.126953 150.661713,1574.990112 150.081268,1576.044678 
	C138.669434,1596.777466 138.726059,1596.779785 147.960907,1617.017822 
	C149.020233,1619.339478 150.247467,1620.607666 152.985550,1621.083252 
	C177.290741,1625.304565 200.408661,1622.702148 222.047180,1610.080933 
	C225.290237,1608.189331 228.579025,1605.234253 233.000000,1607.000000 
"/>
<path fill="none" opacity="1.000000" stroke="#f2cead" stroke-linecap="round" stroke-linejoin="round" stroke-width="3.000000"
	d="
M245.000000,1598.000000 
	C238.235840,1601.042358 235.203140,1607.439087 230.732010,1612.775513 
	C220.040527,1625.536255 204.738937,1631.152344 188.937119,1634.721558 
	C186.210327,1635.337524 183.855728,1637.089600 180.986389,1637.131592 
	C181.396652,1638.654053 181.564087,1640.457153 181.766769,1642.030029 
	C183.191696,1653.087769 189.916229,1656.694946 199.997147,1655.960815 
	C205.810379,1655.537476 209.932800,1659.353394 213.824890,1662.236450 
	C220.023148,1666.827759 225.611282,1671.468994 234.008957,1670.053101 
	C237.877243,1669.401001 239.352493,1673.302734 242.455963,1674.155151 
	C238.408707,1681.654053 226.814819,1680.805542 227.000000,1691.000000 
"/>
<path fill="none" opacity="1.000000" stroke="#f2cead" stroke-linecap="round" stroke-linejoin="round" stroke-width="4.000000"
	d="
M1767.000000,1579.000000 
	C1756.986084,1582.098145 1748.970459,1594.293945 1750.973145,1603.006226 
	C1755.919800,1624.524902 1757.998413,1646.109741 1753.068359,1668.015381 
	C1749.818115,1682.457031 1753.094116,1687.342773 1766.000000,1689.000122 
	C1782.406616,1691.106812 1794.572632,1683.802246 1794.921875,1670.997925 
	C1795.682251,1643.110474 1790.427368,1616.229370 1781.206909,1589.927490 
	C1778.910400,1583.376709 1776.032959,1579.357910 1769.000000,1579.000000 
"/>
<path fill="none" opacity="1.000000" stroke="#f2cead" stroke-linecap="round" stroke-linejoin="round" stroke-width="3.000000"
	d="
M1593.000000,1428.000000 
	C1585.043457,1430.667603 1577.665894,1426.672974 1570.001343,1425.984497 
	C1542.409302,1423.505493 1514.973022,1421.878418 1487.939453,1430.817017 
	C1478.004150,1434.102173 1470.213501,1440.214478 1462.000000,1446.000000 
"/>
<path fill="none" opacity="1.000000" stroke="#f2cead" stroke-linecap="round" stroke-linejoin="round" stroke-width="4.000000"
	d="
M865.000000,765.000000 
	C867.415710,750.124817 871.210693,735.452148 874.052246,720.815979 
	C876.856506,706.371704 881.354675,693.214600 886.950073,679.978882 
	C896.862610,656.531372 919.247864,648.393372 939.071289,637.125427 
	C940.185974,636.491882 942.245972,637.062927 944.068420,637.839417 
	C951.638062,641.064697 951.732483,640.843079 958.554321,636.660095 
	C968.335083,644.262756 979.725464,648.862915 991.955078,652.166199 
	C1009.538818,656.915649 1016.545227,671.956116 1022.961426,687.016418 
	C1028.419922,699.828796 1031.393921,713.298645 1034.429810,726.904053 
	C1037.253662,739.558777 1040.441528,752.006409 1041.000000,765.000000 
"/>
<path fill="none" opacity="1.000000" stroke="#f2cead" stroke-linecap="round" stroke-linejoin="round" stroke-width="3.000000"
	d="
M997.000000,715.000000 
	C1010.861572,738.101196 1022.311707,762.043213 1027.223755,788.959167 
	C1030.305298,805.845154 1027.431885,822.333313 1027.000000,839.000000 
"/>
<path fill="none" opacity="1.000000" stroke="#f2cead" stroke-linecap="round" stroke-linejoin="round" stroke-width="4.000000"
	d="
M1076.000000,1072.000000 
	C1073.044067,1072.377319 1071.700073,1074.984375 1071.128906,1077.035889 
	C1063.128418,1105.776978 1049.890991,1132.282227 1037.311768,1159.145996 
	C1033.017822,1168.316040 1029.528442,1178.465454 1029.110840,1189.004395 
	C1029.007080,1191.624634 1027.164917,1192.432251 1026.000000,1194.000000 
"/>
<path fill="none" opacity="1.000000" stroke="#f2cead" stroke-linecap="round" stroke-linejoin="round" stroke-width="3.000000"
	d="
M991.000000,753.000000 
	C1003.138184,777.398376 1007.515320,803.338623 1002.630981,829.932251 
	C999.723572,845.762146 993.866455,860.652039 983.654297,874.483093 
	C975.397644,885.665588 973.893555,901.207092 973.784180,915.998413 
	C973.710876,925.901855 975.417847,935.393555 977.000000,945.000000 
"/>
<path fill="none" opacity="1.000000" stroke="#f2cead" stroke-linecap="round" stroke-linejoin="round" stroke-width="3.000000"
	d="
M1177.000000,1765.000000 
	C1142.620361,1739.101807 1103.845459,1725.042480 1060.995728,1722.060913 
	C1058.702881,1721.901245 1056.722168,1721.500000 1055.000000,1720.000000 
"/>
<path fill="none" opacity="1.000000" stroke="#f2cead" stroke-linecap="round" stroke-linejoin="round" stroke-width="4.000000"
	d="
M762.000000,815.000000 
	C763.576233,816.320923 764.906921,817.977966 764.951294,820.001038 
	C765.678223,853.161865 772.798828,885.800720 773.000671,919.000000 
	C773.022766,922.625244 772.378479,926.453125 776.000000,929.000000 
"/>
<path fill="none" opacity="1.000000" stroke="#f2cead" stroke-linecap="round" stroke-linejoin="round" stroke-width="3.000000"
	d="
M1589.000000,1449.000000 
	C1579.881958,1446.145874 1571.342773,1447.271362 1561.887207,1449.527100 
	C1545.315063,1453.480469 1528.334961,1455.645752 1511.966064,1460.894287 
	C1493.994629,1466.656982 1477.758179,1475.213867 1462.851074,1486.808594 
	C1458.197388,1490.428101 1457.928955,1497.928955 1451.000000,1499.000000 
"/>
<path fill="none" opacity="1.000000" stroke="#f2cead" stroke-linecap="round" stroke-linejoin="round" stroke-width="4.000000"
	d="
M1581.000000,2037.000000 
	C1583.464844,2027.666626 1588.973877,2018.143433 1580.945312,2009.048218 
	C1571.030151,1997.815674 1557.370972,1996.529785 1544.039551,1998.297852 
	C1528.536865,2000.354004 1513.150513,2004.030396 1498.101929,2008.354736 
	C1493.031250,2009.812012 1488.754272,2009.893311 1484.000000,2009.000000 
"/>
<path fill="none" opacity="1.000000" stroke="#f2cead" stroke-linecap="round" stroke-linejoin="round" stroke-width="4.000000"
	d="
M942.000000,599.000000 
	C933.820801,591.996399 924.097839,593.411987 916.140747,597.288879 
	C889.012817,610.505981 863.247131,625.207520 845.470032,651.643616 
	C837.286255,663.813599 833.539734,678.452637 823.000000,689.000000 
"/>
<path fill="none" opacity="1.000000" stroke="#f2cead" stroke-linecap="round" stroke-linejoin="round" stroke-width="4.000000"
	d="
M840.000000,1100.000000 
	C848.810852,1106.005005 849.104980,1116.734131 852.485413,1125.205322 
	C859.262207,1142.187866 868.684021,1157.971680 874.695984,1175.106689 
	C879.536377,1188.902588 889.570251,1200.405273 891.876526,1215.019531 
	C894.064697,1228.885132 896.209229,1242.842163 895.000000,1257.000000 
"/>
<path fill="none" opacity="1.000000" stroke="#f2cead" stroke-linecap="round" stroke-linejoin="round" stroke-width="3.000000"
	d="
M947.000000,1732.000000 
	C946.761780,1739.154785 952.774780,1742.919434 956.174805,1747.880249 
	C972.255737,1771.342896 984.466614,1796.733643 994.846741,1823.060425 
	C996.252197,1826.624878 998.666260,1830.750000 996.000000,1835.000000 
"/>
<path fill="none" opacity="1.000000" stroke="#f2cead" stroke-linecap="round" stroke-linejoin="round" stroke-width="3.000000"
	d="
M1569.000000,1446.000000 
	C1567.208252,1442.916748 1564.333740,1442.347900 1561.009277,1441.926758 
	C1532.492432,1438.314087 1504.131226,1438.011230 1475.978882,1444.913940 
	C1473.774170,1445.454590 1471.177979,1445.421143 1469.000000,1444.000000 
"/>
<path fill="none" opacity="1.000000" stroke="#f2cead" stroke-linecap="round" stroke-linejoin="round" stroke-width="3.000000"
	d="
M1739.000000,1549.000000 
	C1740.924683,1557.749390 1746.748901,1564.464355 1751.261719,1572.063232 
	C1747.117798,1578.548096 1741.956299,1584.494873 1740.140015,1592.033691 
	C1739.235840,1595.787476 1737.508789,1596.596558 1734.015747,1597.107666 
	C1711.090332,1600.461304 1689.198730,1599.390625 1667.723633,1588.547241 
	C1660.979370,1585.141846 1654.358276,1582.350830 1649.000000,1577.000000 
"/>
<path fill="none" opacity="1.000000" stroke="#f2cead" stroke-linecap="round" stroke-linejoin="round" stroke-width="3.000000"
	d="
M1019.000000,2039.000000 
	C1013.794434,2049.399170 1011.494324,2060.852539 1003.247803,2070.218262 
	C984.533386,2091.472412 962.035156,2106.596436 936.019836,2117.049316 
	C933.371338,2118.113525 930.438477,2119.080566 929.000000,2122.000000 
"/>
<path fill="none" opacity="1.000000" stroke="#f2cead" stroke-linecap="round" stroke-linejoin="round" stroke-width="4.000000"
	d="
M953.000000,1188.000000 
	C956.898254,1190.734009 957.070007,1194.723267 957.046448,1199.000244 
	C956.940186,1218.333008 956.917542,1237.667236 957.071533,1256.999390 
	C957.101257,1260.730957 957.174194,1264.772461 954.860718,1267.376221 
	C949.410339,1273.510742 950.157715,1282.262451 952.597839,1286.668945 
	C959.236877,1298.657471 958.907104,1311.500610 960.724792,1324.039917 
	C961.445740,1329.013184 962.801514,1333.937622 963.000000,1339.000000 
"/>
<path fill="none" opacity="1.000000" stroke="#f2cead" stroke-linecap="round" stroke-linejoin="round" stroke-width="4.000000"
	d="
M143.000000,1662.000000 
	C138.877594,1677.666626 140.700180,1693.430420 143.181900,1708.970947 
	C145.383362,1722.756714 159.587143,1729.551514 172.965698,1723.918579 
	C179.179733,1721.302124 185.576065,1718.545898 189.462677,1711.575317 
	C174.238617,1696.027100 174.901321,1675.552734 173.217102,1655.981323 
	C172.471954,1647.322021 168.929306,1641.510620 162.017349,1636.973511 
	C152.859619,1630.962402 144.010696,1635.009766 143.071838,1646.006104 
	C142.648026,1650.969971 143.000000,1656.000000 143.000000,1661.000000 
"/>
<path fill="none" opacity="1.000000" stroke="#f2cead" stroke-linecap="round" stroke-linejoin="round" stroke-width="4.000000"
	d="
M1067.000000,657.000000 
	C1058.419800,650.997314 1055.126099,640.695923 1047.219971,633.749573 
	C1027.864624,616.743896 1005.917664,604.754272 981.961487,596.106628 
	C975.449524,593.755981 968.218933,593.831970 962.118774,597.214294 
	C958.083740,599.451538 953.942627,600.961487 950.068237,599.776855 
	C943.723083,597.836609 939.461426,600.647034 935.000000,604.000000 
"/>
<path fill="none" opacity="1.000000" stroke="#f2cead" stroke-linecap="round" stroke-linejoin="round" stroke-width="3.000000"
	d="
M948.000000,686.000000 
	C942.443604,702.008850 936.287842,717.664856 934.675659,734.969788 
	C933.138062,751.474548 936.395325,767.105957 939.000000,783.000000 
"/>
<path fill="none" opacity="1.000000" stroke="#f2cead" stroke-linecap="round" stroke-linejoin="round" stroke-width="4.000000"
	d="
M1742.000000,1641.000000 
	C1743.604492,1656.688843 1741.844604,1672.259766 1736.708130,1686.897583 
	C1731.718018,1701.118774 1718.089722,1702.835693 1702.134521,1694.734985 
	C1698.749268,1693.016235 1694.588745,1690.411255 1693.076660,1686.488281 
	C1692.183838,1680.797241 1696.967529,1678.588623 1699.143066,1675.088989 
	C1706.819214,1662.740234 1709.981567,1649.195312 1710.927734,1634.995239 
	C1711.278687,1629.728760 1712.134644,1624.881470 1716.000000,1621.000000 
"/>
<path fill="none" opacity="1.000000" stroke="#f2cead" stroke-linecap="round" stroke-linejoin="round" stroke-width="4.000000"
	d="
M761.000000,696.000000 
	C762.580688,702.946838 758.321472,708.667969 756.929871,714.984558 
	C751.903442,737.799377 751.640564,760.846558 753.039429,783.997620 
	C753.162292,786.030457 754.423767,787.679077 756.000000,789.000000 
"/>
<path fill="none" opacity="1.000000" stroke="#f2cead" stroke-linecap="round" stroke-linejoin="round" stroke-width="3.000000"
	d="
M839.000000,681.000000 
	C836.511658,695.617676 838.627991,710.334839 838.174255,725.005371 
	C837.695557,740.481384 831.818237,752.311340 819.119751,761.171570 
	C816.980164,762.664429 813.575684,763.575684 813.000000,767.000000 
"/>
<path fill="none" opacity="1.000000" stroke="#f2cead" stroke-linecap="round" stroke-linejoin="round" stroke-width="4.000000"
	d="
M827.000000,1005.000000 
	C828.329407,1029.208862 828.751038,1053.569702 836.122375,1076.961426 
	C838.366089,1084.081543 833.950134,1091.129395 837.000000,1098.000000 
"/>
<path fill="none" opacity="1.000000" stroke="#f2cead" stroke-linecap="round" stroke-linejoin="round" stroke-width="4.000000"
	d="
M1134.000000,923.000000 
	C1131.109619,925.710510 1130.161133,928.951172 1129.875854,932.991211 
	C1128.286621,955.499023 1124.437378,977.554749 1117.339233,999.111694 
	C1115.804077,1003.773621 1114.062744,1006.345154 1110.000000,1008.000000 
"/>
<path fill="none" opacity="1.000000" stroke="#f2cead" stroke-linecap="round" stroke-linejoin="round" stroke-width="5.000000"
	d="
M1111.000000,921.000000 
	C1113.349976,940.379578 1112.312622,959.928711 1109.424805,978.912537 
	C1107.391357,992.280701 1110.836304,1005.929565 1105.496094,1019.199646 
	C1103.582886,1023.954407 1107.574219,1031.000000 1105.000000,1037.000000 
"/>
<path fill="none" opacity="1.000000" stroke="#f2cead" stroke-linecap="round" stroke-linejoin="round" stroke-width="4.000000"
	d="
M1014.000000,1177.000000 
	C1007.005737,1186.951782 1005.740784,1199.141968 1001.198364,1210.082397 
	C993.797607,1227.907104 988.160278,1246.451172 980.000000,1264.000000 
"/>
<path fill="none" opacity="1.000000" stroke="#f2cead" stroke-linecap="round" stroke-linejoin="round" stroke-width="4.000000"
	d="
M1159.000000,688.000000 
	C1158.133423,697.785706 1162.775391,706.586548 1164.005859,715.999207 
	C1165.962524,730.965576 1164.886230,746.003357 1164.803467,760.998901 
	C1164.781006,765.043945 1163.018311,769.434265 1159.000000,772.000000 
"/>
<path fill="none" opacity="1.000000" stroke="#f2cead" stroke-linecap="round" stroke-linejoin="round" stroke-width="3.000000"
	d="
M1111.000000,609.000000 
	C1110.937622,627.849121 1120.122681,643.349487 1128.967651,659.018250 
	C1135.348755,670.322388 1141.007446,681.960022 1143.000000,695.000000 
"/>
<path fill="none" opacity="1.000000" stroke="#f2cead" stroke-linecap="round" stroke-linejoin="round" stroke-width="5.000000"
	d="
M1087.000000,971.000000 
	C1088.937378,994.999390 1086.429932,1018.604736 1081.110229,1042.025024 
	C1080.058960,1046.653931 1081.175293,1051.498779 1083.000000,1056.000000 
"/>
<path fill="none" opacity="1.000000" stroke="#f2cead" stroke-linecap="round" stroke-linejoin="round" stroke-width="3.000000"
	d="
M1101.000000,649.000000 
	C1100.453247,665.804871 1108.280762,679.563965 1116.999268,693.000427 
	C1124.892334,705.164795 1129.210571,718.403503 1129.000000,733.000000 
"/>
<path fill="none" opacity="1.000000" stroke="#f2cead" stroke-linecap="round" stroke-linejoin="round" stroke-width="3.000000"
	d="
M885.000000,653.000000 
	C888.490051,645.820312 893.614868,641.653625 901.935730,639.723022 
	C916.602295,636.320129 922.761963,622.809509 930.983398,611.987427 
	C931.991150,610.661011 934.415344,609.999878 933.840759,608.046814 
	C933.552673,607.067505 932.931152,606.134094 933.046509,604.621277 
	C925.328491,607.384644 918.230591,610.864380 912.000000,616.000000 
"/>
<path fill="none" opacity="1.000000" stroke="#f2cead" stroke-linecap="round" stroke-linejoin="round" stroke-width="4.000000"
	d="
M782.000000,937.000000 
	C786.125000,940.218750 784.937317,944.801025 784.974915,949.000244 
	C785.149231,968.454834 786.679321,987.624817 793.826294,1006.067322 
	C795.640198,1010.747803 797.148438,1014.922363 802.000000,1017.000000 
"/>
<path fill="none" opacity="1.000000" stroke="#f2cead" stroke-linecap="round" stroke-linejoin="round" stroke-width="4.000000"
	d="
M953.000000,1107.000000 
	C951.960693,1132.657471 952.972412,1158.381592 951.601379,1183.978638 
	C950.871521,1197.605835 945.608093,1211.156982 947.246887,1224.970703 
	C948.674438,1237.003174 948.922424,1248.968262 948.983154,1261.000122 
	C948.996033,1263.550903 950.244812,1265.377563 952.000000,1267.000000 
"/>
<path fill="none" opacity="1.000000" stroke="#f2cead" stroke-linecap="round" stroke-linejoin="round" stroke-width="5.000000"
	d="
M779.000000,713.000000 
	C769.908447,735.474304 765.391357,758.909058 762.635437,782.958252 
	C761.519714,792.694763 759.317871,802.048340 760.664001,812.045227 
	C761.119263,815.426208 757.666687,819.333313 756.000000,823.000000 
"/>
<path fill="none" opacity="1.000000" stroke="#f2cead" stroke-linecap="round" stroke-linejoin="round" stroke-width="4.000000"
	d="
M805.000000,941.000000 
	C801.487427,962.951843 803.559570,984.984497 803.972107,1007.000549 
	C804.505127,1035.441895 819.553406,1059.603149 826.950745,1086.013794 
	C828.057190,1089.964233 831.081482,1091.845337 834.000000,1094.000000 
"/>
<path fill="none" opacity="1.000000" stroke="#f2cead" stroke-linecap="round" stroke-linejoin="round" stroke-width="4.000000"
	d="
M300.000000,1677.000000 
	C300.245209,1681.062134 298.942108,1683.718872 295.093506,1686.148071 
	C280.000214,1695.674561 268.672974,1709.867065 254.027924,1720.040161 
	C248.228577,1724.068604 242.539505,1728.110107 236.043472,1731.094604 
	C224.709229,1736.302124 213.750443,1737.141724 203.024307,1729.963623 
	C199.206100,1727.408447 195.688049,1727.442017 191.996384,1729.994751 
	C172.484955,1743.486938 153.583130,1744.903809 134.000000,1727.000000 
"/>
<path fill="none" opacity="1.000000" stroke="#f2cead" stroke-linecap="round" stroke-linejoin="round" stroke-width="4.000000"
	d="
M896.000000,1194.000000 
	C900.945435,1195.504883 901.547485,1200.448120 902.811768,1204.065796 
	C909.870056,1224.262329 916.459534,1244.627319 922.819946,1265.056030 
	C923.515625,1267.290405 924.835083,1268.432251 926.000000,1270.000000 
"/>
<path fill="none" opacity="1.000000" stroke="#f2cead" stroke-linecap="round" stroke-linejoin="round" stroke-width="3.000000"
	d="
M959.000000,686.000000 
	C970.231262,710.539734 971.266602,736.668396 971.000000,763.000000 
"/>
<path fill="none" opacity="1.000000" stroke="#f2cead" stroke-linecap="round" stroke-linejoin="round" stroke-width="3.000000"
	d="
M1069.000000,677.000000 
	C1064.745972,706.939209 1072.070923,732.053772 1099.000000,749.000000 
"/>
<path fill="none" opacity="1.000000" stroke="#f2cead" stroke-linecap="round" stroke-linejoin="round" stroke-width="3.000000"
	d="
M801.000000,631.000000 
	C802.996277,649.475037 793.840698,664.564453 785.941772,679.970154 
	C782.058044,687.544617 776.581116,694.335938 775.000000,703.000000 
"/>
<path fill="none" opacity="1.000000" stroke="#f2cead" stroke-linecap="round" stroke-linejoin="round" stroke-width="3.000000"
	d="
M1572.000000,2040.000000 
	C1569.509399,2035.832642 1570.231689,2031.560425 1570.830322,2026.977783 
	C1571.619995,2020.932617 1570.117432,2013.799927 1563.899048,2012.473511 
	C1558.317139,2011.282715 1551.130859,2009.375244 1545.862671,2015.888916 
	C1542.594238,2019.930420 1543.948486,2024.090088 1544.233643,2027.982910 
	C1544.550659,2032.313232 1547.138062,2036.404053 1547.000000,2041.000000 
"/>
<path fill="none" opacity="1.000000" stroke="#f2cead" stroke-linecap="round" stroke-linejoin="round" stroke-width="3.000000"
	d="
M1660.000000,1588.000000 
	C1664.801880,1597.660522 1673.722778,1602.199707 1683.039307,1605.901001 
	C1689.487061,1608.462524 1696.304565,1610.093506 1703.000000,1612.153564 
	C1703.000000,1626.580322 1703.003418,1626.618530 1687.998291,1627.980957 
	C1682.083252,1628.517944 1676.225708,1630.502197 1672.202759,1634.219482 
	C1665.135986,1640.749023 1657.370850,1643.991577 1648.000000,1643.979004 
	C1645.155029,1643.975220 1643.770630,1645.546631 1643.000000,1648.000000 
"/>
<path fill="none" opacity="1.000000" stroke="#f2cead" stroke-linecap="round" stroke-linejoin="round" stroke-width="5.000000"
	d="
M1139.000000,707.000000 
	C1141.495605,718.906006 1146.347046,730.112183 1149.174927,741.958252 
	C1151.560425,751.950623 1151.336304,762.543762 1156.000000,772.000000 
"/>
<path fill="none" opacity="1.000000" stroke="#f2cead" stroke-linecap="round" stroke-linejoin="round" stroke-width="3.000000"
	d="
M1063.000000,765.000000 
	C1079.617554,783.347168 1085.317749,804.764771 1081.000000,829.000000 
"/>
<path fill="none" opacity="1.000000" stroke="#f2cead" stroke-linecap="round" stroke-linejoin="round" stroke-width="3.000000"
	d="
M887.000000,625.000000 
	C871.050537,635.823608 869.116272,653.240601 866.104370,670.018738 
	C865.108521,675.566467 865.333313,681.333313 865.000000,687.000000 
"/>
<path fill="none" opacity="1.000000" stroke="#f2cead" stroke-linecap="round" stroke-linejoin="round" stroke-width="4.000000"
	d="
M1127.000000,851.000000 
	C1128.507568,868.681702 1131.697266,886.207581 1131.969604,904.000488 
	C1132.025635,907.657654 1133.368286,910.577026 1136.000000,913.000000 
"/>
<path fill="none" opacity="1.000000" stroke="#f2cead" stroke-linecap="round" stroke-linejoin="round" stroke-width="4.000000"
	d="
M1082.000000,608.000000 
	C1077.723267,612.517700 1078.374634,618.559692 1076.938232,623.983643 
	C1072.651001,640.174683 1081.866577,653.085327 1087.000000,667.000000 
"/>
<path fill="none" opacity="1.000000" stroke="#f2cead" stroke-linecap="round" stroke-linejoin="round" stroke-width="3.000000"
	d="
M981.000000,815.000000 
	C982.196777,826.315979 985.606262,837.572449 983.811951,848.970398 
	C982.549011,856.992798 981.067139,864.866699 982.000000,873.000000 
"/>
<path fill="none" opacity="1.000000" stroke="#f2cead" stroke-linecap="round" stroke-linejoin="round" stroke-width="3.000000"
	d="
M791.000000,873.000000 
	C789.504761,890.115051 787.028870,907.096680 783.972290,923.994995 
	C783.477539,926.730286 782.267578,929.200500 780.000000,931.000000 
"/>
<path fill="none" opacity="1.000000" stroke="#f2cead" stroke-linecap="round" stroke-linejoin="round" stroke-width="3.000000"
	d="
M1053.500000,1718.000000 
	C1039.787964,1723.147095 1024.894043,1722.748291 1011.013855,1727.044800 
	C1006.587830,1728.414673 1001.369446,1727.827148 998.000000,1732.000000 
"/>
<path fill="none" opacity="1.000000" stroke="#f2cead" stroke-linecap="round" stroke-linejoin="round" stroke-width="4.000000"
	d="
M1112.000000,529.500000 
	C1105.419800,527.093140 1105.845703,533.374634 1105.234619,536.053528 
	C1102.677979,547.259827 1101.032715,558.672607 1098.983398,569.997009 
	C1098.197388,574.339966 1097.379639,579.303040 1093.863159,581.807800 
	C1088.290039,585.777283 1088.500854,591.602600 1086.989868,596.997131 
	C1084.024292,607.584534 1086.961304,617.360718 1091.000000,627.000000 
"/>
<path fill="none" opacity="1.000000" stroke="#f2cead" stroke-linecap="round" stroke-linejoin="round" stroke-width="5.000000"
	d="
M1137.000000,915.000000 
	C1142.022339,931.885742 1144.419800,949.681458 1154.095825,964.939209 
	C1155.022217,966.400024 1154.798584,967.633667 1155.000000,969.000000 
"/>
<path fill="none" opacity="1.000000" stroke="#f2cead" stroke-linecap="round" stroke-linejoin="round" stroke-width="4.000000"
	d="
M1513.000000,2035.000000 
	C1524.397583,2034.813354 1535.008423,2039.106689 1545.937134,2041.311768 
	C1564.669189,2045.091309 1564.504395,2045.907837 1578.000000,2037.000000 
	C1589.561157,2042.424805 1595.585938,2054.666016 1591.954468,2065.985352 
	C1589.329590,2074.166992 1582.057373,2074.847656 1575.009033,2076.052734 
	C1559.493042,2078.705811 1545.277832,2074.343506 1530.896729,2069.293945 
	C1526.742432,2067.835449 1521.864136,2066.284668 1517.000000,2067.000000 
"/>
<path fill="none" opacity="1.000000" stroke="#f2cead" stroke-linecap="round" stroke-linejoin="round" stroke-width="4.000000"
	d="
M1716.000000,1619.500000 
	C1721.564941,1620.885010 1719.658081,1625.433105 1719.990112,1629.000977 
	C1720.961060,1639.431763 1728.151123,1644.239136 1737.999878,1640.999512 
	C1739.001099,1640.670044 1740.496216,1640.640869 1740.922852,1639.952271 
	C1745.015747,1633.346191 1743.408447,1625.834229 1742.587891,1619.049805 
	C1741.985352,1614.067993 1737.660522,1609.928345 1731.001221,1609.866699 
	C1724.126221,1609.803101 1719.667236,1612.148926 1718.000000,1619.000000 
"/>
<path fill="none" opacity="1.000000" stroke="#f2cead" stroke-linecap="round" stroke-linejoin="round" stroke-width="3.000000"
	d="
M827.000000,801.000000 
	C816.420288,818.933289 815.864624,839.234985 814.291931,859.023193 
	C813.220886,872.500488 813.998962,886.083191 809.000000,899.000000 
"/>
<path fill="none" opacity="1.000000" stroke="#f2cead" stroke-linecap="round" stroke-linejoin="round" stroke-width="3.000000"
	d="
M983.000000,695.000000 
	C997.398254,697.870239 1009.974609,704.359314 1021.016724,713.980835 
	C1024.586548,717.091309 1026.927368,721.718384 1032.000000,723.000000 
"/>
<path fill="none" opacity="1.000000" stroke="#f2cead" stroke-linecap="round" stroke-linejoin="round" stroke-width="3.000000"
	d="
M963.000000,605.000000 
	C968.326294,618.941772 978.262573,627.202515 992.980652,630.098450 
	C998.671509,631.218201 1002.066650,636.146667 1006.000000,640.000000 
"/>
<path fill="none" opacity="1.000000" stroke="#f2cead" stroke-linecap="round" stroke-linejoin="round" stroke-width="3.000000"
	d="
M1581.000000,2074.000000 
	C1578.328735,2066.895020 1582.643311,2058.202393 1576.036133,2051.989258 
	C1562.614380,2055.984131 1560.803833,2060.510498 1568.000000,2072.000000 
"/>
<path fill="none" opacity="1.000000" stroke="#f2cead" stroke-linecap="round" stroke-linejoin="round" stroke-width="3.000000"
	d="
M376.000000,1674.000000 
	C375.385986,1666.512329 378.816833,1657.158936 367.972961,1654.095703 
	C360.450867,1651.970947 353.689941,1657.691040 348.000000,1670.000000 
"/>
<path fill="none" opacity="1.000000" stroke="#f2cead" stroke-linecap="round" stroke-linejoin="round" stroke-width="3.000000"
	d="
M353.000000,1707.000000 
	C352.629395,1700.895142 356.805511,1694.355103 350.073853,1688.908691 
	C340.966980,1681.540405 330.697327,1684.762329 326.000000,1697.000000 
"/>
<path fill="none" opacity="1.000000" stroke="#f2cead" stroke-linecap="round" stroke-linejoin="round" stroke-width="5.000000"
	d="
M951.000000,1286.000000 
	C941.472412,1293.640869 943.653564,1304.996460 942.184937,1315.027100 
	C941.300659,1321.066772 940.636414,1327.106079 939.000000,1333.000000 
"/>
<path fill="none" opacity="1.000000" stroke="#f2cead" stroke-linecap="round" stroke-linejoin="round" stroke-width="4.000000"
	d="
M1588.500000,2074.000000 
	C1594.934204,2092.522217 1586.021729,2104.071533 1566.992554,2103.156006 
	C1551.109253,2102.392334 1536.098145,2098.219238 1520.976685,2094.085449 
	C1519.820801,2093.769287 1518.333374,2094.666748 1517.000000,2095.000000 
"/>
<path fill="none" opacity="1.000000" stroke="#f2cead" stroke-linecap="round" stroke-linejoin="round" stroke-width="3.000000"
	d="
M814.000000,585.000000 
	C815.666565,587.416687 817.630920,589.619202 817.043335,593.007507 
	C816.136047,598.239075 818.205078,602.485229 822.355957,605.305420 
	C817.848572,613.824280 816.632874,622.470520 815.000000,631.000000 
"/>
<path fill="none" opacity="1.000000" stroke="#f2cead" stroke-linecap="round" stroke-linejoin="round" stroke-width="4.000000"
	d="
M839.000000,1098.500000 
	C831.387207,1105.742188 836.626709,1114.445435 837.503845,1121.941040 
	C838.406555,1129.655396 840.845581,1137.114868 839.000000,1145.000000 
"/>
<path fill="none" opacity="1.000000" stroke="#f2cead" stroke-linecap="round" stroke-linejoin="round" stroke-width="3.000000"
	d="
M130.000000,1609.000000 
	C128.499939,1610.722168 128.066818,1612.695068 127.940819,1614.996704 
	C126.863167,1634.683594 118.765671,1639.191162 103.000000,1629.000000 
"/>
<path fill="none" opacity="1.000000" stroke="#f2cead" stroke-linecap="round" stroke-linejoin="round" stroke-width="4.000000"
	d="
M1104.000000,1022.000000 
	C1100.744873,1023.198669 1100.144653,1026.015869 1098.795044,1028.904175 
	C1094.249512,1038.631592 1093.050781,1050.145996 1083.131592,1057.185303 
	C1079.342041,1059.874634 1077.667847,1066.726318 1078.486206,1069.873535 
	C1082.219116,1084.227051 1077.123535,1098.867310 1081.000000,1113.000000 
"/>
<path fill="none" opacity="1.000000" stroke="#f2cead" stroke-linecap="round" stroke-linejoin="round" stroke-width="3.000000"
	d="
M1758.000000,1589.000000 
	C1759.157471,1592.918213 1759.354980,1597.020142 1760.142212,1600.971680 
	C1762.165771,1611.127930 1769.024658,1614.520142 1777.922485,1609.852173 
	C1780.254272,1608.629028 1782.349243,1607.259399 1785.000000,1607.000000 
"/>
<path fill="none" opacity="1.000000" stroke="#f2cead" stroke-linecap="round" stroke-linejoin="round" stroke-width="3.000000"
	d="
M973.000000,597.000000 
	C976.474487,605.728210 984.135193,609.673096 992.042480,612.895813 
	C999.679321,616.008362 1006.446533,619.917786 1011.000000,627.000000 
"/>
<path fill="none" opacity="1.000000" stroke="#f2cead" stroke-linecap="round" stroke-linejoin="round" stroke-width="3.000000"
	d="
M166.000000,1642.000000 
	C163.846100,1645.396240 163.990982,1649.184937 163.972885,1652.999878 
	C163.919235,1664.303101 158.636124,1667.322510 148.063278,1661.877197 
	C146.599228,1661.123047 145.366318,1661.201416 144.000000,1661.000000 
"/>
<path fill="none" opacity="1.000000" stroke="#f2cead" stroke-linecap="round" stroke-linejoin="round" stroke-width="3.000000"
	d="
M98.000000,1575.000000 
	C96.161819,1577.414185 94.864159,1580.067017 93.972534,1582.991577 
	C89.441055,1597.856079 82.583656,1599.837036 70.000000,1590.000000 
"/>
<path fill="none" opacity="1.000000" stroke="#f2cead" stroke-linecap="round" stroke-linejoin="round" stroke-width="5.000000"
	d="
M1583.000000,2102.000000 
	C1585.684204,2116.230469 1574.082520,2127.348633 1559.000000,2125.000000 
"/>
<path fill="none" opacity="1.000000" stroke="#f2cead" stroke-linecap="round" stroke-linejoin="round" stroke-width="4.000000"
	d="
M970.000000,1265.000000 
	C964.237427,1273.110962 965.548279,1283.054321 963.168640,1292.044678 
	C962.469360,1294.686401 962.072510,1297.126343 960.000000,1299.000000 
"/>
<path fill="none" opacity="1.000000" stroke="#f2cead" stroke-linecap="round" stroke-linejoin="round" stroke-width="3.000000"
	d="
M1019.000000,635.000000 
	C1026.186890,645.199951 1027.231689,657.206360 1029.000000,669.000000 
"/>
<path fill="none" opacity="1.000000" stroke="#f2cead" stroke-linecap="round" stroke-linejoin="round" stroke-width="3.000000"
	d="
M832.000000,637.000000 
	C827.357666,648.215149 824.806946,660.230103 819.000000,671.000000 
"/>
<path fill="none" opacity="1.000000" stroke="#f2cead" stroke-linecap="round" stroke-linejoin="round" stroke-width="3.000000"
	d="
M1696.000000,1648.000000 
	C1692.346436,1648.477173 1688.397705,1646.793213 1685.022339,1649.033691 
	C1676.253540,1654.853027 1676.994141,1661.885742 1687.000000,1669.000000 
"/>
<path fill="none" opacity="1.000000" stroke="#f2cead" stroke-linecap="round" stroke-linejoin="round" stroke-width="3.000000"
	d="
M1578.000000,2101.000000 
	C1577.333252,2098.666748 1575.540649,2095.900635 1576.236084,2094.090820 
	C1577.653198,2090.402832 1577.374146,2088.174072 1574.038940,2085.941650 
	C1570.223389,2083.387939 1566.909058,2085.725830 1564.108154,2087.204834 
	C1560.961060,2088.867188 1560.464111,2092.497559 1561.991333,2096.003662 
	C1562.708008,2097.648682 1563.333374,2099.333252 1564.000000,2101.000000 
"/>
<path fill="none" opacity="1.000000" stroke="#f2cead" stroke-linecap="round" stroke-linejoin="round" stroke-width="3.000000"
	d="
M919.000000,697.000000 
	C921.297363,704.943848 914.333435,710.583923 913.643738,717.966736 
	C913.389709,720.685791 911.001099,723.667053 911.000000,727.000000 
"/>
<path fill="none" opacity="1.000000" stroke="#f2cead" stroke-linecap="round" stroke-linejoin="round" stroke-width="3.000000"
	d="
M1752.000000,1515.000000 
	C1754.744873,1522.899536 1750.118408,1530.895508 1752.672485,1539.101929 
	C1753.961304,1543.243042 1739.354370,1549.493286 1732.991821,1548.035522 
	C1727.184814,1546.705444 1721.812378,1544.524048 1717.000000,1541.000000 
"/>
<path fill="none" opacity="1.000000" stroke="#f2cead" stroke-linecap="round" stroke-linejoin="round" stroke-width="4.000000"
	d="
M142.000000,1537.000000 
	C138.384369,1544.943481 140.199463,1553.973267 137.213608,1562.544678 
	C147.723602,1574.820923 160.153687,1572.283569 173.000000,1566.000000 
"/>
<path fill="none" opacity="1.000000" stroke="#f2cead" stroke-linecap="round" stroke-linejoin="round" stroke-width="3.000000"
	d="
M198.000000,1674.000000 
	C207.369583,1685.174438 206.872467,1688.654297 195.000000,1695.000000 
"/>
<path fill="none" opacity="1.000000" stroke="#f2cead" stroke-linecap="round" stroke-linejoin="round" stroke-width="3.000000"
	d="
M1094.000000,583.000000 
	C1099.164429,590.174255 1096.767456,599.553955 1101.000000,607.000000 
"/>
<path fill="none" opacity="1.000000" stroke="#f2cead" stroke-linecap="round" stroke-linejoin="round" stroke-width="4.000000"
	d="
M824.000000,608.000000 
	C827.486206,612.393494 829.074097,617.472839 828.942932,622.998657 
	C828.867065,626.193970 829.462097,628.910034 832.000000,631.000000 
"/>
<path fill="none" opacity="1.000000" stroke="#f2cead" stroke-linecap="round" stroke-linejoin="round" stroke-width="3.000000"
	d="
M779.000000,933.000000 
	C774.213196,939.562378 773.532227,947.617798 771.000000,955.000000 
"/>
<path fill="none" opacity="1.000000" stroke="#f2cead" stroke-linecap="round" stroke-linejoin="round" stroke-width="4.000000"
	d="
M1072.000000,638.000000 
	C1067.087524,645.993652 1067.046875,654.568848 1070.141968,662.947510 
	C1072.408569,669.083130 1075.522949,675.006104 1080.000000,680.000000 
"/>
<path fill="none" opacity="1.000000" stroke="#f2cead" stroke-linecap="round" stroke-linejoin="round" stroke-width="4.000000"
	d="
M934.000000,1274.000000 
	C938.853149,1275.740112 939.125366,1279.723022 939.029480,1284.000610 
	C938.955383,1287.306152 938.208252,1290.930542 942.000000,1293.000000 
"/>
<path fill="none" opacity="1.000000" stroke="#f2cead" stroke-linecap="round" stroke-linejoin="round" stroke-width="4.000000"
	d="
M1112.000000,531.000000 
	C1115.791748,533.069397 1114.895264,536.692261 1115.008423,539.999695 
	C1115.131104,543.586365 1113.946289,547.582825 1118.000000,550.000000 
"/>
<path fill="none" opacity="1.000000" stroke="#f2cead" stroke-linecap="round" stroke-linejoin="round" stroke-width="3.000000"
	d="
M1530.000000,2112.000000 
	C1531.970215,2115.757324 1533.406982,2119.648193 1533.000000,2124.000000 
"/>
<path fill="none" opacity="1.000000" stroke="#f2cead" stroke-linecap="round" stroke-linejoin="round" stroke-width="4.000000"
	d="
M834.000000,637.000000 
	C840.585632,642.038879 834.008240,650.541687 839.000000,656.000000 
"/>
<path fill="none" opacity="1.000000" stroke="#f2cead" stroke-linecap="round" stroke-linejoin="round" stroke-width="2.000000"
	d="
M995.000000,709.000000 
	C993.884338,711.333313 997.802124,713.666687 995.000000,716.000000 
"/>
</svg>
