<?xml version="1.0" encoding="UTF-8"?>
<svg version="1.1" xmlns="http://www.w3.org/2000/svg" width="704" height="384">
<path d="M0 0 C0.86141602 0.10586426 1.72283203 0.21172852 2.61035156 0.32080078 C4.40745069 0.54279538 6.20384815 0.77046695 8 1 C3.7892499 9.61490578 3.7892499 9.61490578 0 12 C-4.89158056 12.48038782 -9.60291294 11.71523876 -14.4375 11 C-16.51813611 10.73485433 -18.60015054 10.48366385 -20.68263245 10.23347473 C-22.08323708 10.06462007 -23.48334396 9.89158493 -24.88291931 9.71440125 C-31.38899116 8.90248338 -37.88532426 8.53526662 -44.4375 8.3125 C-45.41323975 8.27705078 -46.38897949 8.24160156 -47.39428711 8.20507812 C-49.59594587 8.12922147 -51.79794416 8.06329001 -54 8 C-53.9071875 9.918125 -53.9071875 9.918125 -53.8125 11.875 C-53.70703125 14.0546875 -53.70703125 14.0546875 -54 16 C-57 18 -57 18 -60.625 17.6875 C-64 17 -64 17 -65 16 C-65.14115161 13.32941149 -65.04247107 10.67567762 -65 8 C-70.10475495 8.26314749 -75.20931106 8.52979779 -80.3137207 8.79956055 C-82.04674442 8.89067048 -83.77981694 8.98085748 -85.51293945 9.07006836 C-88.01787803 9.19917403 -90.52261672 9.33170403 -93.02734375 9.46484375 C-93.79022202 9.50343002 -94.55310028 9.5420163 -95.33909607 9.58177185 C-100.58834153 9.86523975 -105.77935197 10.38167596 -111 11 C-110.67 13.64 -110.34 16.28 -110 19 C-111.65 19.33 -113.3 19.66 -115 20 C-116.89213369 17.61426621 -118.02391783 15.92824652 -119 13 C-124.72757549 12.84215343 -129.84278517 13.34851857 -135.4375 14.53125 C-136.20304199 14.68662231 -136.96858398 14.84199463 -137.75732422 15.0020752 C-140.1731087 15.49410166 -142.58651093 15.99684807 -145 16.5 C-146.6495933 16.83795439 -148.29933184 17.17520069 -149.94921875 17.51171875 C-153.96787007 18.3329752 -157.98442331 19.16384511 -162 20 C-162.2133948 22.15071008 -162.2133948 22.15071008 -160.4375 23.875 C-159 26 -159 26 -159.3125 28.25 C-159.6528125 29.11625 -159.6528125 29.11625 -160 30 C-166.28837209 31.20930233 -166.28837209 31.20930233 -169.125 30.375 C-171.67820618 28.5026488 -173.77904709 26.25008016 -176 24 C-180.252586 25.38803463 -184.50154238 26.78688518 -188.75 28.1875 C-190.53083984 28.76854492 -190.53083984 28.76854492 -192.34765625 29.36132812 C-200.05629246 31.90981168 -207.55553728 34.7595195 -215 38 C-211.67913229 40.77000825 -211.67913229 40.77000825 -208 43 C-208.33 44.32 -208.66 45.64 -209 47 C-211 47.3125 -211 47.3125 -214 47 C-215.08493999 46.00174336 -216.16806907 45.00151714 -217.25 44 C-219.30514042 42.46723606 -219.30514042 42.46723606 -222 42 C-234.22029181 45.47690311 -244.87258043 53.5850387 -255 61 C-251.7 62.65 -248.4 64.3 -245 66 C-245.33 67.65 -245.66 69.3 -246 71 C-248.84302691 72.42151345 -250.83025472 72.23922606 -254 72 C-255.175625 71.484375 -256.35125 70.96875 -257.5625 70.4375 C-260.76372825 68.85471722 -260.76372825 68.85471722 -263.5 68.9375 C-270.24361944 71.80353826 -274.49021638 77.61519773 -278.9375 83.1875 C-279.68314209 84.11502075 -279.68314209 84.11502075 -280.44384766 85.0612793 C-283.32190277 88.60585466 -283.32190277 88.60585466 -284 93 C-280.7 93.66 -277.4 94.32 -274 95 C-273.67 96.32 -273.34 97.64 -273 99 C-276.76668598 100.3805087 -279.44789173 99.59568159 -283.25 98.5625 C-284.86648438 98.13130859 -284.86648438 98.13130859 -286.515625 97.69140625 C-287.33546875 97.46324219 -288.1553125 97.23507813 -289 97 C-290.763622 101.21628702 -292.19063004 105.51921111 -293.5625 109.875 C-293.78357422 110.55691406 -294.00464844 111.23882812 -294.23242188 111.94140625 C-295.60465291 116.294405 -296.4731049 120.46515003 -297 125 C-295.94039062 124.97679687 -294.88078125 124.95359375 -293.7890625 124.9296875 C-292.4010487 124.91093056 -291.0130273 124.89273028 -289.625 124.875 C-288.92632812 124.85824219 -288.22765625 124.84148437 -287.5078125 124.82421875 C-285.67102514 124.80655733 -283.83398037 124.89696739 -282 125 C-281.34 125.66 -280.68 126.32 -280 127 C-280.53571429 130.53571429 -280.53571429 130.53571429 -282 132 C-284.53049402 132.07313567 -287.03304837 132.09247527 -289.5625 132.0625 C-290.27341797 132.05798828 -290.98433594 132.05347656 -291.71679688 132.04882812 C-293.47790013 132.03700864 -295.23896036 132.01907263 -297 132 C-296.13213373 140.46169612 -295.04946509 148.00331333 -291.8046875 155.92578125 C-291 158 -291 158 -291 160 C-290.02160156 159.7834375 -290.02160156 159.7834375 -289.0234375 159.5625 C-284.27379823 158.55372706 -279.88590812 157.74284694 -275 158 C-274.67 159.32 -274.34 160.64 -274 162 C-275.39417773 162.34019152 -276.79044658 162.67181779 -278.1875 163 C-278.96480469 163.185625 -279.74210937 163.37125 -280.54296875 163.5625 C-283.07990225 164.01422743 -285.42879903 164.07307143 -288 164 C-284.25316478 170.38112892 -280.14169636 176.4408575 -275.5625 182.25 C-275.13283936 182.83483154 -274.70317871 183.41966309 -274.26049805 184.0222168 C-272.81580158 185.91003695 -272.81580158 185.91003695 -270 188 C-265.86481595 188.3614689 -262.20505777 187.06951111 -258.3125 185.75 C-255 185 -255 185 -252.0625 186.375 C-251.381875 186.91125 -250.70125 187.4475 -250 188 C-250.0625 189.8125 -250.0625 189.8125 -251 192 C-254.4960903 193.81278756 -257.03981755 195 -261 195 C-261 195.66 -261 196.32 -261 197 C-260.46117187 197.24492187 -259.92234375 197.48984375 -259.3671875 197.7421875 C-256.42849816 199.3036693 -253.83136939 201.1880224 -251.125 203.125 C-246.35315933 206.4677595 -241.51156544 209.6522639 -236.5 212.625 C-235.3759375 213.29789063 -234.251875 213.97078125 -233.09375 214.6640625 C-229.70572177 216.12707469 -228.41938481 216.23097853 -225 215 C-224.195625 214.484375 -223.39125 213.96875 -222.5625 213.4375 C-219.49692277 211.71778595 -217.46045668 211.75857279 -214 212 C-214.125 213.75 -214.125 213.75 -215 216 C-216.96847865 217.37944539 -218.96744142 218.71684631 -221 220 C-211.51392303 224.41079666 -201.98049005 228.54047819 -192.125 232.0625 C-191.27583008 232.37324463 -190.42666016 232.68398926 -189.55175781 233.00415039 C-188.35437988 233.42168579 -188.35437988 233.42168579 -187.1328125 233.84765625 C-186.43043457 234.09523682 -185.72805664 234.34281738 -185.00439453 234.59790039 C-182.61511066 235.07721227 -181.26529867 234.87932057 -179 234 C-178.236875 233.154375 -177.47375 232.30875 -176.6875 231.4375 C-174 229 -174 229 -170.375 228.5625 C-167 229 -167 229 -164 231 C-165.12451727 233.9719385 -166.22293791 236.33440687 -168 239 C-163.78723885 239.96337889 -159.57375424 240.92351315 -155.35961914 241.88085938 C-153.93103891 242.20585054 -152.50264756 242.53167335 -151.07446289 242.85839844 C-136.67773153 246.51760308 -136.67773153 246.51760308 -122 248 C-121.525625 247.030625 -121.05125 246.06125 -120.5625 245.0625 C-119 242 -119 242 -118 241 C-116.33382885 240.95936168 -114.66611905 240.957279 -113 241 C-113.875 247.75 -113.875 247.75 -115 250 C-98.33823421 251.09841983 -81.67894819 252.19261143 -65 253 C-65.02191406 251.88625 -65.04382813 250.7725 -65.06640625 249.625 C-65 246 -65 246 -63.9375 244 C-60.77203476 242.36621149 -58.34979714 243.14732436 -55 244 C-52.70986347 247.4352048 -52.82157027 248.985331 -53 253 C-48.27135183 252.75990048 -43.54324958 252.51126316 -38.81542969 252.25537109 C-37.21365952 252.16980234 -35.61177199 252.08639743 -34.00976562 252.00537109 C-23.89756106 251.4921577 -14.00211994 250.64714644 -4 249 C-4.66 246.69 -5.32 244.38 -6 242 C-5 241 -5 241 -2.625 240.625 C0 241 0 241 1.8125 243.3125 C3 246 3 246 3 249 C8.40817681 247.89955226 13.81587086 246.7967715 19.22314453 245.69189453 C21.05993 245.31691512 22.89684224 244.94255611 24.73388672 244.56884766 C27.38543316 244.02933061 30.03650468 243.48753029 32.6875 242.9453125 C33.49928711 242.78064484 34.31107422 242.61597717 35.14746094 242.44631958 C40.13528545 241.42334943 45.06844841 240.26740876 50 239 C49.319375 238.2575 48.63875 237.515 47.9375 236.75 C46 234 46 234 46.125 231.75 C47 230 47 230 49 229 C51.6875 228.5625 51.6875 228.5625 55 229 C56.76459992 230.52397266 58.29415418 232.1033317 59.80078125 233.8828125 C63.59119235 235.80831441 67.09779198 234.21452224 71 233 C74.54000842 231.80453174 78.02112463 230.48717973 81.5 229.125 C82.38558594 228.78597656 83.27117187 228.44695312 84.18359375 228.09765625 C89.2704468 226.13313003 94.26138609 224.03192872 99.20507812 221.72998047 C101 221 101 221 103 221 C103 220.34 103 219.68 103 219 C102.236875 218.731875 101.47375 218.46375 100.6875 218.1875 C98.12619116 217.05575888 96.80307062 216.08776599 95 214 C95.33 213.34 95.66 212.68 96 212 C100.0214156 211.61700804 101.64474095 211.7607439 105.0625 214.0625 C107.73913849 216.26360589 107.73913849 216.26360589 110.31640625 215.80078125 C121.28831674 212.52677594 133.87734897 204.12265103 142 196 C141.28972656 195.74605469 140.57945312 195.49210938 139.84765625 195.23046875 C138.92855469 194.88628906 138.00945312 194.54210937 137.0625 194.1875 C136.14597656 193.85105469 135.22945312 193.51460937 134.28515625 193.16796875 C132 192 132 192 131 189 C133 186 133 186 135.0625 185.125 C138.73957239 184.96852883 141.34230249 186.02713764 144.71875 187.40625 C147.56693754 188.14755909 149.20717649 187.90277575 152 187 C159.60705151 181.63486408 164.2657465 172.80275114 169 165 C164.71 164.01 160.42 163.02 156 162 C156 160.68 156 159.36 156 158 C161.41499441 157.88478735 166.62915894 158.31798844 172 159 C175.53173752 150.00889722 177.92528201 141.65642135 179 132 C177.94039062 132.01160156 176.88078125 132.02320313 175.7890625 132.03515625 C174.40104342 132.04453476 173.01302245 132.05363489 171.625 132.0625 C170.92632813 132.07087891 170.22765625 132.07925781 169.5078125 132.08789062 C164.2265625 132.11328125 164.2265625 132.11328125 162 131 C162 129.35 162 127.7 162 126 C165.06533164 124.46733418 168.26754272 124.89723529 171.625 124.9375 C172.33140625 124.94201172 173.0378125 124.94652344 173.765625 124.95117188 C175.51045275 124.96296125 177.255237 124.98089676 179 125 C176.70792843 115.62683581 174.00733883 106.81943013 170 98 C169.01257813 98.15597656 168.02515625 98.31195313 167.0078125 98.47265625 C165.72648437 98.66730469 164.44515625 98.86195313 163.125 99.0625 C161.84882812 99.25972656 160.57265625 99.45695312 159.2578125 99.66015625 C156 100 156 100 154 99 C154.33 97.68 154.66 96.36 155 95 C160.445 94.01 160.445 94.01 166 93 C163.5805688 86.95142201 160.21333966 82.89872882 156 78 C155.2471875 77.11441406 154.494375 76.22882813 153.71875 75.31640625 C149.39394524 70.29522694 149.39394524 70.29522694 143.25 68.8125 C141.30960616 69.52149006 139.38390605 70.27724228 137.5 71.125 C133.98735021 72.35442743 131.56225451 71.94097289 128 71 C126.5625 68.9375 126.5625 68.9375 126 67 C129.12825361 64.47333362 132.39524498 62.76287335 136 61 C129.50541723 55.87872107 122.77972141 51.57788896 115.5625 47.5625 C114.39098389 46.90725342 114.39098389 46.90725342 113.19580078 46.23876953 C108.32812242 43.51874785 108.32812242 43.51874785 103 42 C100.96841391 42.96360408 100.96841391 42.96360408 99.0625 44.4375 C95.89592494 46.58011714 93.92981998 47.61403437 90 47 C90 45.68 90 44.36 90 43 C93 40.75 93 40.75 96 39 C84.81056154 31.54037436 70.67975314 28.06928236 58 24 C58.55105909 20.0507432 59.38935371 16.65079826 61 13 C81.2738214 17.10376445 100.8708539 25.12574786 119 35 C119.65613281 35.34885254 120.31226563 35.69770508 120.98828125 36.05712891 C136.4650353 44.29487538 149.97555786 54.29133181 163 66 C163.74894531 66.66386719 164.49789063 67.32773438 165.26953125 68.01171875 C181.51360486 83.26328277 192.63840229 104.67804974 194 127 C194.07927734 127.96873047 194.07927734 127.96873047 194.16015625 128.95703125 C195.24304495 153.58097873 182.48403161 174.8531689 166.48144531 192.42089844 C162.89331888 196.24555265 159.04558149 199.67050479 155 203 C153.64455078 204.1446875 153.64455078 204.1446875 152.26171875 205.3125 C129.74474981 223.53635035 103.16593227 234.7457215 76 244 C74.77941895 244.42708252 74.77941895 244.42708252 73.53417969 244.86279297 C43.28769866 255.42619682 10.84755114 260.59702893 -21 263 C-22.05574219 263.08677002 -22.05574219 263.08677002 -23.1328125 263.17529297 C-101.41534462 269.44459271 -202.40760442 259.57731167 -268 207 C-268.96808594 206.24074219 -269.93617188 205.48148438 -270.93359375 204.69921875 C-290.86397998 188.68650595 -307.84984848 167.96014216 -312 142 C-313.06679001 129.22324686 -312.68140817 117.01817245 -308 105 C-307.63777344 103.98035156 -307.27554688 102.96070313 -306.90234375 101.91015625 C-298.56405082 79.94794062 -280.03666587 61.99002637 -261 49 C-260.01128906 48.31550781 -259.02257812 47.63101563 -258.00390625 46.92578125 C-217.33721837 19.73329007 -168.11065646 6.09279385 -120 0 C-118.84967285 -0.15098145 -117.6993457 -0.30196289 -116.51416016 -0.45751953 C-78.1413299 -5.29785341 -38.3455054 -4.83701346 0 0 Z " fill="#272727" transform="translate(411,85)"/>
<path d="M0 0 C2.63597643 1.31798822 2.81212577 2.51041579 4 5.1875 C9.40496946 16.29948133 17.38118492 26.21882105 26 35 C26.45197754 35.47195801 26.90395508 35.94391602 27.36962891 36.43017578 C41.52886683 51.06217624 59.41713916 62.73781984 77.95263672 71.07714844 C80.23081909 72.104042 82.4917569 73.16483872 84.75390625 74.2265625 C89.79854529 76.57318093 94.88410818 78.81347624 100 81 C100.7027002 81.30260742 101.40540039 81.60521484 102.12939453 81.91699219 C142.67320848 99.01577787 189.4880605 105.86488947 233.125 107.5625 C234.60613281 107.62727539 234.60613281 107.62727539 236.1171875 107.69335938 C251.13825601 108.29382087 266.119443 108.10006595 281.125 107.25 C281.89180084 107.20676605 282.65860168 107.1635321 283.44863892 107.11898804 C349.66058105 103.28057762 423.50053561 87.46451128 475 43 C476.27423828 41.90751953 476.27423828 41.90751953 477.57421875 40.79296875 C490.76704916 29.21719677 500.08940075 15.54140239 508 0 C508.33 0 508.66 0 509 0 C510.36556892 20.36973643 501.61654912 37.55752188 489 53 C487.98099609 54.24910156 487.98099609 54.24910156 486.94140625 55.5234375 C483.55901906 59.5316718 483.55901906 59.5316718 482 61 C481.34 61 480.68 61 480 61 C479.80792969 61.54398437 479.61585938 62.08796875 479.41796875 62.6484375 C477.36426726 66.05430058 474.40651575 68.21197867 471.3125 70.625 C470.30219727 71.41777344 470.30219727 71.41777344 469.27148438 72.2265625 C409.5859456 118.50649564 328.99731958 132.28376938 255.1875 132.1875 C253.780448 132.18609512 253.780448 132.18609512 252.3449707 132.18466187 C183.05984325 132.03573259 103.41535453 120.2751322 47 77 C46.23171875 76.42507813 45.4634375 75.85015625 44.671875 75.2578125 C38.82308305 70.82009273 33.3791225 65.99232941 28 61 C27.09121094 60.18982422 27.09121094 60.18982422 26.1640625 59.36328125 C11.74323943 45.9241574 1.32567289 25.73390374 -0.23828125 5.9921875 C-0.24768071 3.99323517 -0.14242103 1.99389444 0 0 Z " fill="#222222" transform="translate(97,248)"/>
<path d="M0 0 C1.07529863 3.2258959 0.98690603 3.82059379 0.03125 6.90698242 C-0.20650146 7.69018356 -0.44425293 8.4733847 -0.68920898 9.28031921 C-0.95677002 10.13011856 -1.22433105 10.97991791 -1.5 11.85546875 C-1.77336182 12.74873367 -2.04672363 13.6419986 -2.32836914 14.56233215 C-3.21073192 17.4399799 -4.10490594 20.31378965 -5 23.1875 C-6.14880282 26.90924405 -7.29309314 30.632371 -8.4375 34.35546875 C-8.87919777 35.78848831 -8.87919777 35.78848831 -9.32981873 37.25045776 C-11.67332946 44.87445964 -13.91971117 52.52406972 -16.13868713 60.18510437 C-18.51396493 68.37132457 -20.94662142 76.53949837 -23.39109421 84.70523643 C-24.73100821 89.1862001 -26.06402136 93.66922186 -27.39714622 98.15220928 C-28.53911977 101.99051902 -29.68526622 105.82749705 -30.83959961 109.66210938 C-31.97891899 113.44765273 -33.10752029 117.23624427 -34.22892952 121.02713013 C-34.65208591 122.45071349 -35.07903361 123.87317621 -35.51003838 125.29440308 C-39.47843279 136.77569476 -39.47843279 136.77569476 -37.96875 148.3984375 C-37.4840625 149.05070313 -36.999375 149.70296875 -36.5 150.375 C-35.96117187 151.1175 -35.42234375 151.86 -34.8671875 152.625 C-32.15154006 156.07921265 -29.38013307 159.48411267 -26.5390625 162.8359375 C-25 165 -25 165 -25 168 C-43.81281846 175.31064084 -62.64548323 182.56314862 -81.52978516 189.6875 C-85.03684247 191.01393451 -88.54014681 192.34992557 -92.04296875 193.6875 C-94.23691818 194.52099388 -96.43092578 195.35433466 -98.625 196.1875 C-100.13694946 196.76794067 -100.13694946 196.76794067 -101.67944336 197.36010742 C-102.60249268 197.70920166 -103.52554199 198.0582959 -104.4765625 198.41796875 C-105.28174316 198.72500732 -106.08692383 199.0320459 -106.91650391 199.34838867 C-109 200 -109 200 -112 200 C-111.50306641 200.85271484 -111.50306641 200.85271484 -110.99609375 201.72265625 C-109.32321175 205.54732372 -109.93397422 209.04149095 -111 213 C-115.16273236 218.90839432 -122.53526975 222.18106376 -129.4375 223.8125 C-130.613125 223.874375 -131.78875 223.93625 -133 224 C-133.80953125 224.05027344 -134.6190625 224.10054687 -135.453125 224.15234375 C-145.29441005 224.50381822 -154.75029807 223.05326289 -162.4375 216.53515625 C-164.56977441 214.44019664 -165.96440955 212.8306139 -167 210 C-167 205.13096302 -165.93180623 201.94925668 -162.5703125 198.34765625 C-158.17846949 194.57853725 -153.96239218 193.0434134 -148.25 192.75 C-141.88095746 191.61405796 -139.2518782 186.90127406 -135.7409668 181.92260742 C-134.69549119 180.40695752 -133.65620576 178.8870225 -132.62255859 177.36328125 C-129.87077612 173.35526825 -126.95829039 169.46701737 -124.0625 165.5625 C-123.47791016 164.7669873 -122.89332031 163.97147461 -122.29101562 163.15185547 C-118.34165606 157.77972497 -114.31860583 152.46970802 -110.25 147.1875 C-106.46490685 142.27250312 -102.75780321 137.32319524 -99.1875 132.25 C-94.3428073 125.36681355 -89.22121681 118.70500217 -84.09887695 112.02709961 C-79.76037188 106.35500216 -75.52409576 100.62430605 -71.375 94.8125 C-66.4472997 87.91494025 -61.31956407 81.20252 -56.0871582 74.53393555 C-52.04003347 69.36651895 -48.11053423 64.12991099 -44.2512207 58.82128906 C-38.5255914 50.95153682 -32.6591496 43.18721232 -26.81054688 35.40869141 C-24.14158938 31.85799903 -21.47709232 28.30396852 -18.8125 24.75 C-17.85416709 23.47265593 -16.89583376 22.19531218 -15.9375 20.91796875 C-13.83113158 18.10971602 -11.72750782 15.29942542 -9.625 12.48828125 C-9.07094482 11.74803711 -8.51688965 11.00779297 -7.94604492 10.24511719 C-6.87784585 8.81787168 -5.81027405 7.39015643 -4.7434082 5.96191406 C-1.11246966 1.11246966 -1.11246966 1.11246966 0 0 Z M-50 78 C-49 80 -49 80 -49 80 Z M-53 82 C-52 84 -52 84 -52 84 Z M-54 84 C-54 87 -54 87 -54 87 Z M-56 87 C-61.20081958 93.46792835 -66.04141863 100.18175406 -70.88085938 106.92041016 C-75.07513934 112.7491202 -79.35822784 118.50376151 -83.68579102 124.23388672 C-86.90213761 128.50424058 -90.03833089 132.82266679 -93.125 137.1875 C-96.76374797 142.33143579 -100.53594291 147.3499854 -104.39770508 152.328125 C-108.38177157 157.47066784 -112.20122492 162.71990015 -116 168 C-117.56119289 170.15906299 -119.12348207 172.31733042 -120.68579102 174.47558594 C-122.36702956 176.8014734 -124.04298632 179.13110362 -125.71875 181.4609375 C-127.82077091 184.37972243 -129.94470682 187.27974746 -132.09375 190.1640625 C-132.80072021 191.12348755 -132.80072021 191.12348755 -133.52197266 192.10229492 C-134.40402614 193.2986854 -135.29398963 194.48929646 -136.19287109 195.6730957 C-137.50930193 197.42013159 -137.50930193 197.42013159 -139 200 C-138.67 200.99 -138.34 201.98 -138 203 C-135.24554818 203.6345703 -135.24554818 203.6345703 -132 203 C-129.62567486 200.79969668 -127.99169768 198.15026095 -126.25 195.4375 C-125.4751123 194.28471558 -125.4751123 194.28471558 -124.68457031 193.10864258 C-123.10469696 190.75071312 -121.55221022 188.37619843 -120 186 C-119.09621647 184.64938792 -118.19010872 183.30032709 -117.28125 181.953125 C-115.21168918 178.87991387 -113.16295456 175.79363847 -111.12304688 172.70068359 C-109.42413214 170.12793576 -107.71175848 167.56421421 -106 165 C-105.3503125 164.02546875 -104.700625 163.0509375 -104.03125 162.046875 C-96.09375 150.140625 -96.09375 150.140625 -88.15625 138.234375 C-87.47715576 137.21569336 -86.79806152 136.19701172 -86.09838867 135.14746094 C-84.69765995 133.04644934 -83.29678065 130.94553813 -81.89575195 128.84472656 C-78.972634 124.46125997 -76.04975583 120.07767421 -73.13671875 115.6875 C-67.18651137 106.72530271 -61.11665505 97.84938116 -55 89 C-55.495 88.01 -55.495 88.01 -56 87 Z " fill="#222222" transform="translate(490,5)"/>
<path d="M0 0 C-0.13277344 0.6290625 -0.26554687 1.258125 -0.40234375 1.90625 C-0.57894531 2.7621875 -0.75554687 3.618125 -0.9375 4.5 C-1.11152344 5.3353125 -1.28554688 6.170625 -1.46484375 7.03125 C-1.89546875 9.42011863 -2.23900105 11.77820635 -2.53344727 14.18554688 C-2.76439087 16.07370117 -2.76439087 16.07370117 -3 18 C-2.4406778 18.18347992 -1.88135559 18.36695984 -1.30508423 18.55599976 C4.50441214 20.46305077 10.31109923 22.37847251 16.11621094 24.29882812 C18.28444322 25.01485808 20.45338787 25.72873457 22.62304688 26.44042969 C25.7375669 27.46247054 28.84946145 28.49217254 31.9609375 29.5234375 C32.934935 29.84122162 33.9089325 30.15900574 34.91244507 30.48641968 C35.81322784 30.7865799 36.71401062 31.08674011 37.64208984 31.39599609 C38.43706879 31.65802826 39.23204773 31.92006042 40.05111694 32.19003296 C42 33 42 33 44 35 C39.18245617 36.67876557 34.36266712 38.350865 29.54077148 40.01708984 C27.9040854 40.58366603 26.26800387 41.15199202 24.63256836 41.72216797 C22.26837236 42.54606538 19.90200237 43.36343901 17.53515625 44.1796875 C16.81602554 44.43185028 16.09689484 44.68401306 15.35597229 44.94381714 C10.29334809 46.68016706 5.24110011 47.91158541 0 49 C1.65 45.37 3.3 41.74 5 38 C-23.05 38 -51.1 38 -80 38 C-80 35.36 -80 32.72 -80 30 C-71.75288157 26.50316241 -63.44656576 23.21550737 -55.0625 20.0625 C-53.19480827 19.35788606 -51.32711928 18.65326484 -49.45951843 17.94841003 C-48.13028496 17.44684757 -46.80094748 16.94556067 -45.47151184 16.4445343 C-40.81995941 14.69058616 -36.17291812 12.92506148 -31.52796936 11.15370178 C-28.12681283 9.85678977 -24.72468245 8.56244339 -21.32247925 7.26828003 C-19.65094308 6.63177242 -17.97981925 5.99418088 -16.30911255 5.35549927 C-13.96373422 4.45920745 -11.61682533 3.56704153 -9.26953125 2.67578125 C-8.56254089 2.40445374 -7.85555054 2.13312622 -7.12713623 1.85357666 C-2.22786497 0 -2.22786497 0 0 0 Z " fill="#222222" transform="translate(467,179)"/>
<path d="M0 0 C0.99561951 -0.00137466 1.99123901 -0.00274933 3.01702881 -0.00416565 C4.1132254 -0.00057037 5.209422 0.0030249 6.33883667 0.00672913 C7.49005005 0.0065831 8.64126343 0.00643707 9.82736206 0.00628662 C13.64744933 0.00698547 17.46748835 0.01477662 21.28756714 0.02259827 C23.93029758 0.02446254 26.57302837 0.0258864 29.21575928 0.02688599 C35.47016087 0.02999703 41.72454503 0.03820738 47.97893894 0.04823548 C55.09855723 0.05940364 62.21817635 0.06490884 69.33780122 0.06993091 C83.98512803 0.08039017 98.63244109 0.09798524 113.27975464 0.12025452 C113.27975464 1.77025452 113.27975464 3.42025452 113.27975464 5.12025452 C110.38755977 6.08431947 108.57183393 6.24589359 105.56660461 6.24723816 C104.59774323 6.25005798 103.62888184 6.25287781 102.63066101 6.25578308 C101.569254 6.25375885 100.50784698 6.25173462 99.41427612 6.24964905 C97.73594696 6.25227753 97.73594696 6.25227753 96.02371216 6.25495911 C92.31607524 6.25936939 88.60848581 6.25644269 84.90084839 6.25306702 C82.33159882 6.25374024 79.76234932 6.25471043 77.19309998 6.25596619 C71.80539282 6.257442 66.41770361 6.25538712 61.02999878 6.25062561 C54.79689227 6.24518065 48.56381846 6.24694823 42.33071274 6.25245202 C36.33834533 6.25753185 30.34599395 6.25700057 24.35362434 6.25407028 C21.80143288 6.25340135 19.24924059 6.25422827 16.69705009 6.25654984 C13.13662349 6.25907775 9.57626047 6.25523387 6.01583862 6.24964905 C4.95240738 6.25167328 3.88897614 6.25369751 2.7933197 6.25578308 C1.82727814 6.25296326 0.86123657 6.25014343 -0.13407898 6.24723816 C-1.39754323 6.24667262 -1.39754323 6.24667262 -2.68653202 6.24609566 C-4.72024536 6.12025452 -4.72024536 6.12025452 -6.72024536 5.12025452 C-6.72024536 3.80025452 -6.72024536 2.48025452 -6.72024536 1.12025452 C-4.28114304 -0.09929664 -2.7264741 -0.00289435 0 0 Z " fill="#5E5E5E" transform="translate(202.72024536132813,210.87974548339844)"/>
<path d="M0 0 C5.82366805 1.20824851 11.4714925 2.66944034 17.125 4.51171875 C17.89009384 4.75696793 18.65518768 5.0022171 19.44346619 5.25489807 C21.09862638 5.7855149 22.75326997 6.31774541 24.40744019 6.85144043 C28.91564344 8.30526474 33.42816645 9.7454918 37.94140625 11.18359375 C39.37559654 11.64060165 39.37559654 11.64060165 40.83876038 12.10684204 C55.01307311 16.60897011 69.24860095 20.91465546 83.47851562 25.23706055 C84.50014297 25.54804184 85.52177032 25.85902313 86.57435608 26.1794281 C88.49902259 26.76517109 90.42416167 27.34936424 92.34983826 27.93177795 C93.19981888 28.19051193 94.0497995 28.44924591 94.92553711 28.71582031 C95.66791122 28.94086243 96.41028534 29.16590454 97.17515564 29.39776611 C99 30 99 30 101 31 C101 32.32 101 33.64 101 35 C93.65472388 34.58527548 87.25534611 33.05607776 80.3125 30.6875 C78.10628175 29.95847255 75.89918719 29.23209374 73.69140625 28.5078125 C71.87020264 27.90888184 71.87020264 27.90888184 70.01220703 27.29785156 C62.29076333 24.78326519 54.51466391 22.43927863 46.75 20.0625 C43.41000271 19.03826065 40.07024229 18.0132499 36.73046875 16.98828125 C35.91260895 16.73741257 35.09474915 16.48654388 34.25210571 16.22807312 C26.18369104 13.75215708 18.1221102 11.25440663 10.0625 8.75 C8.83047852 8.367229 7.59845703 7.98445801 6.32910156 7.59008789 C3.55260845 6.72712927 0.77622586 5.86381792 -2 5 C-1.34 3.35 -0.68 1.7 0 0 Z " fill="#3B3B3A" transform="translate(384,221)"/>
<path d="M0 0 C6.41957535 0.50356092 12.36759105 2.50764303 18.484375 4.4296875 C20.16074791 4.94946922 20.16074791 4.94946922 21.87098694 5.47975159 C25.49900873 6.60616735 29.12456906 7.74027577 32.75 8.875 C35.23776698 9.65016564 37.7256418 10.42498525 40.21362305 11.19946289 C45.16531924 12.74182628 50.11597237 14.28747742 55.06591797 15.83544922 C60.28346927 17.46611877 65.50423959 19.08589534 70.7281189 20.69616699 C74.0125512 21.70892786 77.2954688 22.72652808 80.57800293 23.74542236 C82.06136699 24.20485599 83.54533255 24.66235231 85.02990723 25.11785889 C87.04914913 25.73810482 89.06584466 26.3659999 91.08203125 26.99609375 C92.18780518 27.33825928 93.2935791 27.6804248 94.43286133 28.03295898 C97 29 97 29 99 31 C98.34 31.99 97.68 32.98 97 34 C91.4754251 33.37018931 86.44135583 32.05308945 81.1484375 30.375 C80.30435837 30.11215714 79.46027924 29.84931427 78.59062195 29.57850647 C75.85049122 28.72400083 73.11276406 27.86205483 70.375 27 C68.47599217 26.40630096 66.5768209 25.81312442 64.67749023 25.22045898 C60.88396669 24.03606339 57.09128971 22.8490172 53.29931641 21.65966797 C47.41985743 19.81656126 41.53468491 17.99231576 35.64794922 16.17260742 C32.17614372 15.09768575 28.70714542 14.01405616 25.23828125 12.9296875 C21.18393065 11.66578316 17.12093594 10.44321256 13.04296875 9.2578125 C12.1398999 8.98960693 11.23683105 8.72140137 10.30639648 8.44506836 C8.66283193 7.9580107 7.01538755 7.48376247 5.36352539 7.02563477 C3.234375 6.38671875 3.234375 6.38671875 0 5 C-1.046875 2.89453125 -1.046875 2.89453125 -1 1 C-0.67 0.67 -0.34 0.34 0 0 Z " fill="#3A3A3A" transform="translate(221,172)"/>
<path d="M0 0 C0.50998535 0.3705249 1.0199707 0.7410498 1.54541016 1.12280273 C1.54541016 2.11280273 1.54541016 3.10280273 1.54541016 4.12280273 C0.82925537 4.34307129 0.11310059 4.56333984 -0.62475586 4.7902832 C-14.29397793 9.000027 -27.94492782 13.2561567 -41.54910278 17.67202759 C-47.18113436 19.49865839 -52.81770933 21.31120102 -58.45458984 23.12280273 C-59.51822754 23.46569336 -60.58186523 23.80858398 -61.67773438 24.16186523 C-64.47443143 25.05782809 -67.27561392 25.9374339 -70.07958984 26.81030273 C-70.87244385 27.06642334 -71.66529785 27.32254395 -72.48217773 27.58642578 C-76.48781135 28.81253124 -79.41368504 29.44048908 -83.45458984 28.12280273 C-83.45458984 27.13280273 -83.45458984 26.14280273 -83.45458984 25.12280273 C-70.27473144 20.69191275 -57.08469768 16.30260604 -43.81787109 12.13842773 C-39.47555432 10.77314528 -35.14666191 9.37085572 -30.82191467 7.95121765 C-27.62648709 6.90492323 -24.42712068 5.87100206 -21.22720337 4.83853149 C-19.63514249 4.32177283 -18.04475903 3.79981596 -16.45614624 3.27255249 C-14.21764729 2.53048346 -11.97384308 1.80721533 -9.72802734 1.08764648 C-9.05293625 0.8589386 -8.37784515 0.63023071 -7.68229675 0.39459229 C-4.72740263 -0.53397203 -2.96970286 -1.06128331 0 0 Z " fill="#3A3A3A" transform="translate(319.45458984375,221.877197265625)"/>
<path d="M0 0 C1.640625 1.3828125 1.640625 1.3828125 3.25 3.125 C5.65673212 5.64391031 8.09335299 7.9962052 10.75 10.25 C14.15840674 13.1828151 17.34371914 16.30097896 20.5 19.5 C24.83200966 23.88458619 29.31312455 27.99991422 34 32 C37.02086875 34.64389693 40.01779214 37.31261117 43 40 C43.83144531 40.73089844 43.83144531 40.73089844 44.6796875 41.4765625 C46.0625 42.75 46.0625 42.75 48 45 C48 46.32 48 47.64 48 49 C45.046951 49.26662582 43.48241572 49.32470514 40.98291016 47.64233398 C40.34144043 47.01657471 39.6999707 46.39081543 39.0390625 45.74609375 C38.31976563 45.05580078 37.60046875 44.36550781 36.859375 43.65429688 C36.12203125 42.92275391 35.3846875 42.19121094 34.625 41.4375 C33.89539063 40.73302734 33.16578125 40.02855469 32.4140625 39.30273438 C28.9716953 35.96794115 25.58168654 32.58283852 22.203125 29.18359375 C19.91996152 26.89357098 17.60270298 24.7062705 15.125 22.625 C11.16629725 19.22298983 7.52124345 15.56016313 3.8828125 11.8203125 C2.12246661 9.93616102 2.12246661 9.93616102 0 9 C0 8.34 0 7.68 0 7 C-0.598125 6.731875 -1.19625 6.46375 -1.8125 6.1875 C-3.99847854 5.00082594 -5.41332594 3.90400887 -7 2 C-7 1.34 -7 0.68 -7 0 C-3.82436432 -1.05854523 -3.02087796 -1.13575644 0 0 Z " fill="#373737" transform="translate(376,231)"/>
<path d="M0 0 C1.2684375 0.4640625 1.2684375 0.4640625 2.5625 0.9375 C0.96834497 4.84959308 -1.57643332 7.30968086 -4.5625 10.25 C-5.0560498 10.73710449 -5.54959961 11.22420898 -6.05810547 11.72607422 C-9.42168412 15.01978301 -12.89670747 18.14147699 -16.4765625 21.1953125 C-19.52841988 23.90672364 -22.34894766 26.84087147 -25.21484375 29.74609375 C-27.85933941 32.35340845 -30.63752175 34.76147072 -33.45703125 37.17578125 C-36.296866 39.70194589 -38.9354875 42.41062758 -41.578125 45.140625 C-43.44415742 46.94393364 -45.26449678 48.51703273 -47.4375 49.9375 C-49.6875 49.625 -49.6875 49.625 -51.4375 48.9375 C-50.85615127 45.66890998 -49.91594849 44.0462842 -47.55859375 41.73046875 C-46.97110352 41.14749023 -46.38361328 40.56451172 -45.77832031 39.96386719 C-45.15022461 39.35704102 -44.52212891 38.75021484 -43.875 38.125 C-43.23530273 37.49625977 -42.59560547 36.86751953 -41.93652344 36.21972656 C-38.18700842 32.55771925 -34.36095355 29.02657608 -30.359375 25.640625 C-27.04661825 22.70492999 -23.99634102 19.50318746 -20.88671875 16.35546875 C-18.13251508 13.63640644 -15.2663061 11.10680535 -12.30859375 8.61328125 C-10.32331375 6.83523299 -8.59589861 4.91601881 -6.8125 2.9375 C-3.89793076 -0.07087147 -3.89793076 -0.07087147 0 0 Z " fill="#3E3F3E" transform="translate(331.4375,230.0625)"/>
<path d="M0 0 C3.87448028 0.51648683 5.79559911 1.30673576 8.48828125 4.1328125 C9.10807861 4.77065674 9.72787598 5.40850098 10.36645508 6.06567383 C11.0086499 6.74525146 11.65084473 7.4248291 12.3125 8.125 C13.65440686 9.50830079 14.99813485 10.88983745 16.34375 12.26953125 C16.98054688 12.92518066 17.61734375 13.58083008 18.2734375 14.25634766 C20.76278404 16.77033422 23.41191024 19.05256634 26.11328125 21.33203125 C29.41077168 24.24720394 32.44180643 27.43405374 35.53125 30.56640625 C38.37426596 33.36893622 41.34164765 35.97141515 44.40625 38.52734375 C46 40 46 40 48 43 C46.02 43.66 44.04 44.32 42 45 C41.5153125 44.50371094 41.030625 44.00742188 40.53125 43.49609375 C37.20098614 40.12099941 33.86233846 36.82352327 30.25 33.75 C26.09192867 30.18126161 22.28117524 26.30962326 18.43383789 22.41430664 C15.60271669 19.5616321 12.73669581 16.81040047 9.6875 14.1875 C7.06877012 11.93187132 4.46484958 9.67069626 1.9375 7.3125 C1.34839844 6.77238281 0.75929688 6.23226562 0.15234375 5.67578125 C-1 4 -1 4 -0.68359375 1.79296875 C-0.45800781 1.20128906 -0.23242188 0.60960937 0 0 Z " fill="#3A3A3A" transform="translate(285,151)"/>
<path d="M0 0 C1.65 0 3.3 0 5 0 C6.65118775 1.65118775 6.13580031 3.58230456 6.14526367 5.85522461 C6.15164352 6.8897728 6.15802338 7.92432098 6.16459656 8.99021912 C6.16570938 10.11622025 6.1668222 11.24222137 6.16796875 12.40234375 C6.17129715 13.55037979 6.17462555 14.69841583 6.17805481 15.88124084 C6.18312901 18.31494749 6.18546298 20.74866112 6.18530273 23.18237305 C6.18748854 26.91792192 6.20563746 30.65317535 6.22460938 34.38867188 C6.22754325 36.74739482 6.22952808 39.10611917 6.23046875 41.46484375 C6.23765427 42.58882065 6.24483978 43.71279755 6.25224304 44.87083435 C6.24916641 45.9085347 6.24608978 46.94623505 6.24291992 48.01538086 C6.24434494 48.93169785 6.24576996 49.84801483 6.24723816 50.792099 C6 53 6 53 4 55 C2.68 54.67 1.36 54.34 0 54 C0 36.18 0 18.36 0 0 Z " fill="#404040" transform="translate(349,234)"/>
<path d="M0 0 C1.65 0 3.3 0 5 0 C7.66765041 2.66765041 6.3183447 10.16596357 6.35009766 13.99047852 C6.3665996 15.44637095 6.39381383 16.90218429 6.43212891 18.35766602 C6.48722258 20.46152577 6.50882247 22.56348234 6.5234375 24.66796875 C6.54325684 25.92891357 6.56307617 27.1898584 6.58349609 28.48901367 C5.81787046 33.09590166 4.25848659 34.72610463 1 38 C0.67 38 0.34 38 0 38 C0 25.46 0 12.92 0 0 Z " fill="#404040" transform="translate(349,142)"/>
</svg>
